<?xml version="1.0" encoding="UTF-8"?>
<svg version="1.1" xmlns="http://www.w3.org/2000/svg" width="1857" height="1856">
<path d="M0 0 C4.60028182 0.01709007 9.20004216 0.00689221 13.80030632 -0.0103302 C99.4915097 -0.28091236 185.28736936 12.53449156 473.93701172 125.85546875 C476.25052021 127.23063114 478.57414343 128.5846793 480.90722656 129.92626953 C499.3117626 140.53152966 517.17198979 152.1385406 534.52050781 164.39111328 C535.08672852 164.78927246 535.65294922 165.18743164 536.23632812 165.59765625 C551.63765037 176.44234808 566.83695971 187.58995134 581.52050781 199.39111328 C582.16084961 199.90528809 582.80119141 200.41946289 583.4609375 200.94921875 C592.04449894 207.85465037 600.53612384 214.8599853 608.90966797 222.01855469 C610.55945465 223.42429896 612.21705526 224.82038437 613.87597656 226.21533203 C621.59203783 232.73014286 629.01419714 239.5084777 636.34082031 246.45751953 C639.55885514 249.50813523 642.83308368 252.49101657 646.11816406 255.46923828 C652.5987321 261.37553468 658.81576783 267.53439067 665.00415039 273.74438477 C666.84505489 275.59069574 668.69131053 277.43153602 670.53808594 279.27197266 C675.86211056 284.59300113 681.13273655 289.90395198 686.0144043 295.63989258 C688.69910958 298.76153157 691.56372238 301.71598622 694.39550781 304.70361328 C699.31544554 309.93059988 703.97425463 315.2497419 708.45410156 320.85986328 C710.52163564 323.39249481 712.68164122 325.79842489 714.89550781 328.20361328 C718.87734368 332.57812154 722.53792864 337.13640403 726.15942383 341.80761719 C729.12103326 345.62434996 732.14022739 349.3834258 735.21313477 353.11108398 C743.02620923 362.60099613 750.33004376 372.4239221 757.52050781 382.39111328 C758.24391357 383.38836426 758.24391357 383.38836426 758.98193359 384.40576172 C810.24576327 455.22532495 851.05890885 533.11415917 885.52050781 629.39111328 C885.73580139 630.02025635 885.95109497 630.64939941 886.1729126 631.29760742 C911.78956719 706.28714378 927.5583538 785.29301993 932.52050781 864.39111328 C932.57164734 865.19871094 932.62278687 866.00630859 932.67547607 866.83837891 C936.1338217 922.45147979 936.34975461 977.80252562 928.96051025 1033.08764648 C928.52393076 1036.36541431 928.09954576 1039.64455576 927.67822266 1042.92431641 C920.10291947 1101.53813123 907.96496979 1159.18931168 889.52050781 1215.39111328 C889.2736322 1216.14809509 889.02675659 1216.9050769 888.7723999 1217.68499756 C875.00164328 1259.89695833 858.0583788 1300.517781 838.52050781 1340.39111328 C837.9984375 1341.46248535 837.47636719 1342.53385742 836.93847656 1343.63769531 C829.85539165 1358.14638659 822.40350573 1372.36195282 814.29541016 1386.32421875 C812.41231527 1389.57806166 810.55423721 1392.84550999 808.69628906 1396.11376953 C798.1766795 1414.51725181 786.62200352 1432.13540994 774.69946289 1449.65551758 C773.03291403 1452.10892321 771.37844651 1454.57040727 769.72363281 1457.03173828 C758.97370928 1472.96278813 747.55973081 1488.41135867 735.52050781 1503.39111328 C735.00633301 1504.03145508 734.4921582 1504.67179687 733.96240234 1505.33154297 C727.05828359 1513.9134725 720.05445714 1522.40373803 712.89746094 1530.77587891 C711.47929435 1532.43945871 710.06975465 1534.11007204 708.66113281 1535.78173828 C701.83948734 1543.84781176 694.73765398 1551.60569756 687.48413086 1559.28393555 C686.04582837 1560.82738809 684.62222845 1562.38457707 683.20727539 1563.94946289 C675.86078039 1572.06876654 668.21181538 1579.8534904 660.45825195 1587.58374023 C658.32223424 1589.71435962 656.19166663 1591.85032551 654.06152344 1593.98681641 C652.67968275 1595.36799678 651.29753214 1596.74886717 649.91503906 1598.12939453 C649.29087601 1598.75558182 648.66671295 1599.3817691 648.02363586 1600.02693176 C644.25981642 1603.77112659 640.3823192 1607.33120242 636.35844421 1610.79472351 C633.34055267 1613.41599549 630.43597913 1616.15713706 627.52050781 1618.89111328 C623.21609221 1622.90811162 618.89078341 1626.88244684 614.43066406 1630.72705078 C612.15846271 1632.70651454 609.93590909 1634.73694498 607.70800781 1636.76611328 C603.43389312 1640.62450861 599.02605867 1644.27337514 594.54785156 1647.89111328 C591.73985435 1650.2099755 589.00012195 1652.58663229 586.26806641 1654.9934082 C578.36289656 1661.94933927 570.14621689 1668.37231618 561.73828125 1674.70556641 C558.6783792 1677.03114586 555.65596611 1679.40321416 552.63232422 1681.77563477 C545.08885063 1687.6907497 537.47200076 1693.44530424 529.61035156 1698.93017578 C527.13717563 1700.65908756 524.67307375 1702.40065885 522.20800781 1704.14111328 C510.19297849 1712.59564564 498.03840702 1720.70345351 485.52050781 1728.39111328 C484.4936084 1729.02629883 483.46670898 1729.66148438 482.40869141 1730.31591797 C404.95786806 1778.18145381 321.28354484 1814.43844754 149.08300781 1852.20361328 C147.99873001 1852.35280212 147.99873001 1852.35280212 146.89254761 1852.50500488 C141.77563314 1853.20090818 136.65180695 1853.81167318 131.52050781 1854.39111328 C130.74779006 1854.47907669 129.97507231 1854.5670401 129.17893887 1854.65766907 C111.88872324 1856.55600014 94.65048798 1856.70452086 77.28220916 1856.69269586 C74.09135948 1856.6916049 70.90052874 1856.69656373 67.70968324 1856.70130128 C60.14164539 1856.71231093 52.57365717 1856.71288653 45.00561523 1856.70678711 C38.17450234 1856.70145271 31.34353965 1856.70842626 24.51245117 1856.72729492 C-48.56324359 1856.92439372 -48.56324359 1856.92439372 -83.47949219 1853.39111328 C-85.61706339 1853.1898939 -87.75467284 1852.98908005 -89.89233398 1852.78881836 C-94.74434985 1852.3146832 -99.58058234 1851.75265205 -104.41699219 1851.14111328 C-105.66826904 1850.9872113 -105.66826904 1850.9872113 -106.94482422 1850.8302002 C-168.3920054 1843.2476112 -228.69979141 1829.84207776 -287.47949219 1810.39111328 C-288.85627226 1809.93811976 -290.2330626 1809.48515744 -291.60986328 1809.03222656 C-311.20895267 1802.56431453 -330.43538431 1795.34232817 -349.47949219 1787.39111328 C-350.08903748 1787.13736938 -350.69858276 1786.88362549 -351.32659912 1786.62219238 C-390.22412362 1770.41285395 -428.55815688 1751.80448595 -464.67919922 1730.07373047 C-467.41612511 1728.42918877 -470.16359107 1726.80359259 -472.91308594 1725.18017578 C-517.12287229 1698.87665389 -558.64864254 1668.16599892 -597.78369141 1634.83251953 C-599.48184065 1633.38911712 -601.18539411 1631.95229905 -602.88964844 1630.51611328 C-610.91578885 1623.72659807 -618.64202212 1616.66413598 -626.28222656 1609.44482422 C-628.47496417 1607.39534547 -630.68938558 1605.37066621 -632.90534973 1603.34637451 C-640.13152887 1596.72986539 -647.12317172 1589.90212192 -654.03857422 1582.96240234 C-655.87060214 1581.12495568 -657.70799824 1579.29299679 -659.54589844 1577.46142578 C-664.85303762 1572.15728397 -670.1045615 1566.86187531 -674.97119141 1561.14453125 C-677.65689069 1558.02237322 -680.52198786 1555.0669988 -683.35449219 1552.07861328 C-688.27442992 1546.85162668 -692.93323901 1541.53248466 -697.41308594 1535.92236328 C-699.48062001 1533.38973175 -701.6406256 1530.98380168 -703.85449219 1528.57861328 C-707.83632805 1524.20410502 -711.49691302 1519.64582253 -715.1184082 1514.97460938 C-718.08001763 1511.15787661 -721.09921177 1507.39880077 -724.17211914 1503.67114258 C-731.98505912 1494.18139377 -739.29117574 1484.35967612 -746.47949219 1474.39111328 C-746.97239746 1473.71032715 -747.46530273 1473.02954102 -747.97314453 1472.328125 C-772.58824811 1438.24502477 -794.6896095 1402.47306197 -814.47949219 1365.39111328 C-814.95563965 1364.50198242 -815.43178711 1363.61285156 -815.92236328 1362.69677734 C-836.33289886 1324.47102623 -853.58356657 1285.0684034 -868.47949219 1244.39111328 C-868.72959045 1243.70954163 -868.97968872 1243.02796997 -869.23736572 1242.32574463 C-883.64085272 1202.96310419 -894.90282125 1162.40825298 -903.47949219 1121.39111328 C-903.63528748 1120.65018433 -903.79108276 1119.90925537 -903.95159912 1119.14587402 C-912.16875817 1079.92395259 -917.51511734 1040.19904792 -920.75292969 1000.27001953 C-920.81300705 999.53425186 -920.87308441 998.79848419 -920.9349823 998.04042053 C-922.11030341 982.901534 -922.6499463 967.82192331 -922.68261719 952.64111328 C-922.68544456 951.72814484 -922.68827194 950.81517639 -922.691185 949.87454224 C-922.70605731 945.02150198 -922.71535616 940.16849041 -922.71972656 935.31542969 C-922.72406312 931.40875665 -922.73778303 927.50231047 -922.76074219 923.59570312 C-923.26023446 836.76809198 -910.96652587 749.66136305 -805.93310547 475.93554688 C-804.19079989 472.88578054 -802.50989595 469.80554414 -800.83349609 466.71923828 C-779.03386293 426.7152233 -752.51140612 388.3097122 -723.76220703 352.97363281 C-721.96186611 350.75250417 -720.19118785 348.50814958 -718.41699219 346.26611328 C-714.89823236 341.86401333 -711.26662074 337.56401118 -707.61157227 333.27514648 C-704.71975499 329.87719891 -701.89523345 326.43563908 -699.10449219 322.95361328 C-694.48540595 317.27114029 -689.50490172 311.96058349 -684.49511719 306.62548828 C-682.14118849 304.1148245 -679.84955004 301.56273457 -677.60449219 298.95361328 C-674.97259301 295.90035094 -672.18151383 293.06983382 -669.30444336 290.24853516 C-667.61669205 288.53075429 -666.0609078 286.76453451 -664.50683594 284.92626953 C-659.95356351 279.69139113 -655.04979949 274.81139512 -650.13696289 269.91821289 C-648.54490252 268.33151382 -646.95826229 266.73953586 -645.37207031 265.14697266 C-640.43917499 260.21119018 -635.48040042 255.35316354 -630.1472168 250.84448242 C-628.33895472 249.26863933 -626.65849113 247.60332264 -624.97949219 245.89111328 C-621.99076882 242.85516404 -618.8624274 240.04602669 -615.63574219 237.26611328 C-613.27986261 235.21752235 -610.97441759 233.11908327 -608.66699219 231.01611328 C-604.37475601 227.14199448 -599.95170545 223.47093781 -595.45605469 219.83642578 C-592.72733024 217.59471777 -590.0496662 215.30747417 -587.38183594 212.99438477 C-581.40288332 207.81125702 -575.32183251 202.85383545 -569.01074219 198.07861328 C-566.40494309 196.10633415 -563.82789544 194.10093904 -561.26074219 192.07861328 C-551.9842414 184.7764174 -542.5692336 177.76898434 -532.86376953 171.04833984 C-530.22353163 169.21320418 -527.59540011 167.36144524 -524.96777344 165.50830078 C-513.01686911 157.10067483 -500.92984667 149.03729158 -488.47949219 141.39111328 C-487.45259277 140.75592773 -486.42569336 140.12074219 -485.36767578 139.46630859 C-419.76230244 98.92140264 -350.11367291 66.45479244 -276.60925293 43.06890869 C-274.5224722 42.40479165 -272.43698539 41.73672592 -270.3515625 41.06835938 C-191.60109633 15.92143996 -107.46638041 1.29681922 0 0 Z " fill="#1C6B8F" transform="translate(922.4794921875,-0.39111328125)"/>
<path d="M0 0 C39.0739136 5.74616376 39.0739136 5.74616376 56.53491211 8.53564453 C58.56131672 8.85779474 60.58774985 9.17976557 62.61420822 9.50157738 C68.03651041 10.36314751 73.45843193 11.22709058 78.88028312 12.09149361 C84.72478713 13.02281064 90.56966519 13.95177464 96.414505 14.88098145 C106.40993124 16.47029678 116.40515827 18.0608596 126.40026855 19.65216064 C141.39565294 22.03940214 156.39168322 24.4225697 171.38787988 26.80470273 C174.68502998 27.32845833 177.98217384 27.85225322 181.27931786 28.37604713 C181.93303255 28.47989799 182.58674725 28.58374885 183.26027148 28.6907467 C184.58149901 28.9006406 185.90272649 29.11053481 187.22395392 29.32042931 C188.54541635 29.53036062 189.86687898 29.74029077 191.18834178 29.95021977 C206.36182923 32.36069843 221.53521179 34.77183664 236.70849609 37.18359375 C237.99338086 37.38782227 239.27826563 37.5920508 240.60208631 37.80246806 C259.55136081 40.81454428 278.49998974 43.83065763 297.44823039 46.84923005 C314.53866198 49.57175575 331.62992916 52.28898 348.72211742 55.00045586 C358.70598586 56.58448753 368.68909098 58.17316049 378.67117542 59.76839662 C385.41868711 60.84629176 392.16709703 61.91843571 398.91622978 62.98613334 C402.73059103 63.58972783 406.54454582 64.19559279 410.35738564 64.80873108 C460.53627942 72.8724372 510.89779854 76.25566266 561.46289062 69.46557617 C562.71291115 69.29779506 563.96293167 69.13001394 565.2508316 68.95714855 C587.00739336 65.98475668 608.67890069 62.38997339 630.36248899 58.93469501 C636.46543933 57.96257322 642.56907283 56.99475433 648.67263655 56.02649269 C660.95862965 54.07735236 673.24410352 52.12495928 685.52926636 50.17059326 C702.79250334 47.42433437 720.05652747 44.6830467 737.32072292 41.94282043 C744.08471799 40.86919669 750.84868798 39.79541505 757.61265564 38.72161865 C758.72559489 38.54493859 758.72559489 38.54493859 759.86101777 38.36468923 C771.06420266 36.58614975 782.26726225 34.80682253 793.4702301 33.0269165 C794.20155164 32.91072562 794.93287318 32.79453474 795.68635597 32.67482293 C798.6181506 32.20902244 801.54994439 31.7432167 804.48173749 31.27740657 C844.39787085 24.93543823 884.31529436 18.60163396 924.2349987 12.28217793 C933.45756999 10.82218223 942.67996772 9.36110168 951.90209001 7.89827245 C958.02859504 6.92653451 964.15526455 5.95583901 970.28208166 4.98607069 C973.719237 4.44199707 977.15631545 3.89745 980.59318352 3.35156441 C984.22002195 2.77576837 987.84714949 2.20183155 991.47436523 1.62841797 C992.52889137 1.46053426 993.58341751 1.29265055 994.66989899 1.11967945 C995.61849037 0.97012145 996.56708176 0.82056345 997.54441833 0.66647339 C998.36353415 0.53666517 999.18264997 0.40685696 1000.02658749 0.27311516 C1002 0 1002 0 1004 0 C1004.350625 1.010625 1004.70125 2.02125 1005.0625 3.0625 C1006.72188471 6.94218819 1009.07892547 9.33488076 1012.12109375 12.19921875 C1013.96997868 13.97122696 1015.64154486 15.81042796 1017.3125 17.75 C1020.15728251 21.04866916 1023.06299293 24.28306639 1026 27.5 C1029.45328153 31.28662998 1032.86099051 35.1047632 1036.22265625 38.97265625 C1038.29359487 41.33489173 1040.39512848 43.66795853 1042.5 46 C1045.18983431 48.98062721 1047.86310364 51.97245233 1050.5 55 C1054.61081039 59.71701284 1058.80667845 64.35638889 1063 69 C1067.76786975 74.27985576 1072.51512218 79.57291806 1077.1875 84.9375 C1080.0326929 88.1751333 1082.92853836 91.3668629 1085.81640625 94.56640625 C1087.70848685 96.67511146 1089.57905758 98.79919801 1091.4375 100.9375 C1094.24822525 104.16559512 1097.115799 107.33738443 1100 110.5 C1103.45328153 114.28662998 1106.86099051 118.1047632 1110.22265625 121.97265625 C1112.29359487 124.33489173 1114.39512848 126.66795853 1116.5 129 C1119.18983431 131.98062721 1121.86310364 134.97245233 1124.5 138 C1128.61081039 142.71701284 1132.80667845 147.35638889 1137 152 C1141.76786975 157.27985576 1146.51512218 162.57291806 1151.1875 167.9375 C1154.0326929 171.1751333 1156.92853836 174.3668629 1159.81640625 177.56640625 C1161.70848685 179.67511146 1163.57905758 181.79919801 1165.4375 183.9375 C1168.24822525 187.16559512 1171.115799 190.33738443 1174 193.5 C1177.45328153 197.28662998 1180.86099051 201.1047632 1184.22265625 204.97265625 C1186.29359487 207.33489173 1188.39512848 209.66795853 1190.5 212 C1193.18983431 214.98062721 1195.86310364 217.97245233 1198.5 221 C1202.61081039 225.71701284 1206.80667845 230.35638889 1211 235 C1215.76786975 240.27985576 1220.51512218 245.57291806 1225.1875 250.9375 C1228.0326929 254.1751333 1230.92853836 257.3668629 1233.81640625 260.56640625 C1235.70848685 262.67511146 1237.57905758 264.79919801 1239.4375 266.9375 C1242.24822525 270.16559512 1245.115799 273.33738443 1248 276.5 C1251.45328153 280.28662998 1254.86099051 284.1047632 1258.22265625 287.97265625 C1260.29359487 290.33489173 1262.39512848 292.66795853 1264.5 295 C1267.18983431 297.98062721 1269.86310364 300.97245233 1272.5 304 C1276.61081039 308.71701284 1280.80667845 313.35638889 1285 318 C1289.76786975 323.27985576 1294.51512218 328.57291806 1299.1875 333.9375 C1302.0326929 337.1751333 1304.92853836 340.3668629 1307.81640625 343.56640625 C1309.70848685 345.67511146 1311.57905758 347.79919801 1313.4375 349.9375 C1316.24822525 353.16559512 1319.115799 356.33738443 1322 359.5 C1325.45328153 363.28662998 1328.86099051 367.1047632 1332.22265625 370.97265625 C1334.29359487 373.33489173 1336.39512848 375.66795853 1338.5 378 C1341.18983431 380.98062721 1343.86310364 383.97245233 1346.5 387 C1350.61081039 391.71701284 1354.80667845 396.35638889 1359 401 C1363.76786975 406.27985576 1368.51512218 411.57291806 1373.1875 416.9375 C1376.0326929 420.1751333 1378.92853836 423.3668629 1381.81640625 426.56640625 C1383.70848685 428.67511146 1385.57905758 430.79919801 1387.4375 432.9375 C1390.24822525 436.16559512 1393.115799 439.33738443 1396 442.5 C1399.45328153 446.28662998 1402.86099051 450.1047632 1406.22265625 453.97265625 C1408.29359487 456.33489173 1410.39512848 458.66795853 1412.5 461 C1416.37722182 465.29620119 1420.20067224 469.63481492 1424 474 C1424 467.07 1424 460.14 1424 453 C1426.75927344 455.75927344 1426.51783243 458.21154052 1427 462 C1427.33 462.33 1427.66 462.66 1428 463 C1428.51488912 467.37789839 1428.71808518 471.78918832 1429 476.1875 C1429.12375 477.9499707 1429.12375 477.9499707 1429.25 479.74804688 C1430.90586998 504.88363574 1431.34358588 530.1271393 1431.4375 555.3125 C1431.44021534 556.03688389 1431.44293068 556.76126778 1431.4457283 557.50760269 C1431.53070611 586.85369079 1429.33032771 615.58975418 1425.44000244 644.6965332 C1425.00342295 647.97430103 1424.57903794 651.25344248 1424.15771484 654.53320312 C1416.58241165 713.14701795 1404.44446197 770.79819839 1386 827 C1385.75312439 827.75698181 1385.50624878 828.51396362 1385.25189209 829.29388428 C1371.48113546 871.50584505 1354.53787099 912.12666772 1335 952 C1334.47792969 953.07137207 1333.95585938 954.14274414 1333.41796875 955.24658203 C1326.33488383 969.75527331 1318.88299792 983.97083954 1310.77490234 997.93310547 C1308.89180746 1001.18694838 1307.03372939 1004.45439671 1305.17578125 1007.72265625 C1294.65617169 1026.12613853 1283.10149571 1043.74429666 1271.17895508 1061.2644043 C1269.51240622 1063.71780993 1267.85793869 1066.17929398 1266.203125 1068.640625 C1255.45320147 1084.57167485 1244.03922299 1100.02024539 1232 1115 C1231.4858252 1115.6403418 1230.97165039 1116.28068359 1230.44189453 1116.94042969 C1223.53777578 1125.52235922 1216.53394933 1134.01262475 1209.37695312 1142.38476562 C1207.95878654 1144.04834543 1206.54924683 1145.71895876 1205.140625 1147.390625 C1198.31897952 1155.45669848 1191.21714617 1163.21458428 1183.96362305 1170.89282227 C1182.52532056 1172.43627481 1181.10172064 1173.99346379 1179.68676758 1175.55834961 C1172.34027258 1183.67765326 1164.69130757 1191.46237712 1156.93774414 1199.19262695 C1154.80172643 1201.32324634 1152.67115882 1203.45921223 1150.54101562 1205.59570312 C1149.15917493 1206.9768835 1147.77702433 1208.35775389 1146.39453125 1209.73828125 C1145.77036819 1210.36446854 1145.14620514 1210.99065582 1144.50312805 1211.63581848 C1140.73930861 1215.38001331 1136.86181139 1218.94008914 1132.8379364 1222.40361023 C1129.82004486 1225.0248822 1126.91547132 1227.76602378 1124 1230.5 C1119.6955844 1234.51699834 1115.3702756 1238.49133356 1110.91015625 1242.3359375 C1108.63795489 1244.31540126 1106.41540128 1246.3458317 1104.1875 1248.375 C1099.91338531 1252.23339533 1095.50555086 1255.88226186 1091.02734375 1259.5 C1088.21934654 1261.81886222 1085.47961414 1264.19551901 1082.74755859 1266.60229492 C1074.84238875 1273.55822599 1066.62570908 1279.9812029 1058.21777344 1286.31445312 C1055.15787139 1288.64003258 1052.1354583 1291.01210087 1049.11181641 1293.38452148 C1041.56834281 1299.29963642 1033.95149295 1305.05419096 1026.08984375 1310.5390625 C1023.61666781 1312.26797428 1021.15256594 1314.00954557 1018.6875 1315.75 C1006.67247068 1324.20453236 994.51789921 1332.31234023 982 1340 C980.97310059 1340.63518555 979.94620117 1341.27037109 978.88818359 1341.92480469 C901.43736024 1389.79034053 817.76303703 1426.04733426 631.91064453 1465.52734375 C629.56684239 1465.81062512 627.22376625 1466.10017488 624.88232422 1466.40234375 C618.25942985 1467.24575294 611.66961309 1467.71590941 605 1468 C604.18867615 1468.03712097 603.37735229 1468.07424194 602.54144287 1468.11248779 C596.61680852 1468.37656905 590.69474668 1468.56182871 584.76538086 1468.67904663 C582.73269751 1468.72590541 580.7003194 1468.78924971 578.66870117 1468.87002563 C561.49903974 1469.51780043 561.49903974 1469.51780043 556.54296875 1465.85473633 C554.029643 1463.36401407 552.01060834 1460.90303085 550 1458 C548.88967237 1456.71632757 547.76757738 1455.4425535 546.625 1454.1875 C546.0784375 1453.54941406 545.531875 1452.91132812 544.96875 1452.25390625 C542.41021464 1449.32478938 539.76951134 1446.47641587 537.125 1443.625 C532.80227226 1438.96081085 528.52183101 1434.26305558 524.27734375 1429.52734375 C521.70190225 1426.66917797 519.10314236 1423.83289739 516.5 1421 C512.40830793 1416.54667383 508.35177023 1412.06340112 504.3125 1407.5625 C501.72384997 1404.69399591 499.11414854 1401.8452335 496.5 1399 C492.40833893 1394.54664513 488.35177054 1390.06340146 484.3125 1385.5625 C481.72384997 1382.69399591 479.11414854 1379.8452335 476.5 1377 C472.40833893 1372.54664513 468.35177054 1368.06340146 464.3125 1363.5625 C461.72384997 1360.69399591 459.11414854 1357.8452335 456.5 1355 C452.40833893 1350.54664513 448.35177054 1346.06340146 444.3125 1341.5625 C441.72384997 1338.69399591 439.11414854 1335.8452335 436.5 1333 C432.40833893 1328.54664513 428.35177054 1324.06340146 424.3125 1319.5625 C421.72384997 1316.69399591 419.11414854 1313.8452335 416.5 1311 C412.40833893 1306.54664513 408.35177054 1302.06340146 404.3125 1297.5625 C401.72384997 1294.69399591 399.11414854 1291.8452335 396.5 1289 C392.40833893 1284.54664513 388.35177054 1280.06340146 384.3125 1275.5625 C381.72384997 1272.69399591 379.11414854 1269.8452335 376.5 1267 C372.40833893 1262.54664513 368.35177054 1258.06340146 364.3125 1253.5625 C361.72384997 1250.69399591 359.11414854 1247.8452335 356.5 1245 C352.40833893 1240.54664513 348.35177054 1236.06340146 344.3125 1231.5625 C341.72384997 1228.69399591 339.11414854 1225.8452335 336.5 1223 C332.40833893 1218.54664513 328.35177054 1214.06340146 324.3125 1209.5625 C321.72384997 1206.69399591 319.11414854 1203.8452335 316.5 1201 C312.40833893 1196.54664513 308.35177054 1192.06340146 304.3125 1187.5625 C301.72384997 1184.69399591 299.11414854 1181.8452335 296.5 1179 C292.40833893 1174.54664513 288.35177054 1170.06340146 284.3125 1165.5625 C281.72384997 1162.69399591 279.11414854 1159.8452335 276.5 1157 C272.40833893 1152.54664513 268.35177054 1148.06340146 264.3125 1143.5625 C261.72384997 1140.69399591 259.11414854 1137.8452335 256.5 1135 C252.40833893 1130.54664513 248.35177054 1126.06340146 244.3125 1121.5625 C241.72384997 1118.69399591 239.11414854 1115.8452335 236.5 1113 C232.40833893 1108.54664513 228.35177054 1104.06340146 224.3125 1099.5625 C221.72384997 1096.69399591 219.11414854 1093.8452335 216.5 1091 C212.40833893 1086.54664513 208.35177054 1082.06340146 204.3125 1077.5625 C201.72384997 1074.69399591 199.11414854 1071.8452335 196.5 1069 C192.40833893 1064.54664513 188.35177054 1060.06340146 184.3125 1055.5625 C181.72384997 1052.69399591 179.11414854 1049.8452335 176.5 1047 C172.40833893 1042.54664513 168.35177054 1038.06340146 164.3125 1033.5625 C161.72384997 1030.69399591 159.11414854 1027.8452335 156.5 1025 C152.40833893 1020.54664513 148.35177054 1016.06340146 144.3125 1011.5625 C141.72384997 1008.69399591 139.11414854 1005.8452335 136.5 1003 C132.41828574 998.55747122 128.36989637 994.08669595 124.34375 989.59375 C122.58338688 987.64561481 120.81341251 985.70926724 119.03125 983.78125 C118.52787109 983.23597656 118.02449219 982.69070313 117.50585938 982.12890625 C116.5195362 981.06198858 115.53132251 979.9968148 114.54101562 978.93359375 C111.11040684 975.22081368 111.11040684 975.22081368 110 973 C113.93021452 974.71886532 117.167963 977.30180167 120.5625 979.875 C134.22449689 990.03817218 148.79668011 998.74069326 163.78027344 1006.79980469 C165.93879318 1007.96690577 168.0830428 1009.15718816 170.2265625 1010.3515625 C193.9862766 1023.41659298 219.34232105 1033.37866618 245 1042 C246.10666016 1042.37962891 247.21332031 1042.75925781 248.35351562 1043.15039062 C317.90252066 1066.95521043 392.51117716 1076.54688589 465.75 1078.5625 C466.8725116 1078.59376984 466.8725116 1078.59376984 468.0177002 1078.62567139 C483.34706609 1079.04402373 498.66512265 1079.1963475 514 1079 C514.70006165 1078.99139954 515.40012329 1078.98279907 516.12139893 1078.97393799 C602.39106143 1077.86238332 690.80937109 1069.88642673 776 1041 C777.01191406 1040.65888184 778.02382812 1040.31776367 779.06640625 1039.96630859 C826.0365633 1024.03000531 870.84527154 1000.67424619 907.65625 967.125 C909.80692711 965.17505276 911.98824971 963.26973871 914.1875 961.375 C920.66046757 955.72090182 926.46682574 949.56874082 932 943 C932.45648926 942.46262207 932.91297852 941.92524414 933.38330078 941.37158203 C987.50224103 877.38766067 1003.55570113 797.61310196 1003.40683305 715.92286444 C1003.40199819 711.42684571 1003.41469876 706.93086549 1003.42485046 702.43486023 C1003.44183738 693.68438711 1003.44292234 684.9339864 1003.43763756 676.18350111 C1003.43356238 669.06821524 1003.43507857 661.95295045 1003.44038582 654.83766556 C1003.44113424 653.81723276 1003.44188266 652.79679996 1003.44265376 651.74544496 C1003.44418549 649.67138182 1003.44572384 647.59731868 1003.44726873 645.52325554 C1003.46091668 626.18697976 1003.45560706 606.85074474 1003.44408352 587.51446994 C1003.43412314 569.85761683 1003.44715382 552.2008681 1003.47101771 534.54403107 C1003.49543256 516.34062682 1003.50501293 498.13727116 1003.49836498 479.93385088 C1003.49488271 469.74258605 1003.49704102 459.55140173 1003.51461601 449.36014938 C1003.52936639 440.70124649 1003.52993455 432.04248108 1003.5125451 423.38358079 C1003.50406289 418.97429599 1003.50181802 414.56525656 1003.51719666 410.15598488 C1003.53113318 406.11008638 1003.52616729 402.06464148 1003.50695742 398.01876862 C1003.50322494 396.56594449 1003.50603864 395.1130832 1003.51656907 393.66029243 C1003.6506068 373.7310845 998.10623884 355.62670887 984.20874023 341.01049805 C970.24652096 327.0386745 952.25519955 320.89444141 932.82416329 320.87943399 C931.0038732 320.88568448 931.0038732 320.88568448 929.14680958 320.89206123 C927.84228009 320.89251458 926.5377506 320.89296792 925.19368991 320.893435 C921.56756558 320.89480691 917.94147693 320.90242673 914.31536349 320.91100957 C910.37225725 320.91919517 906.42914712 320.92143294 902.4860341 320.9243573 C895.57334729 320.93024851 888.66067268 320.93970588 881.74799347 320.95145988 C870.50171321 320.97048548 859.25543093 320.9821614 848.00914001 320.99278259 C844.07669076 320.99656957 840.14424155 321.00040134 836.21179235 321.00425029 C835.22353577 321.00521252 834.2352792 321.00617476 833.21707545 321.00716615 C826.03985714 321.01424428 818.86264032 321.02231284 811.68542349 321.03075147 C781.66570168 321.06571984 751.64600753 321.08170079 721.62626648 321.08639526 C719.43499237 321.08676613 717.24371825 321.0871397 715.05244414 321.08751597 C697.18510473 321.09052753 679.31776522 321.09268759 661.45042564 321.09441677 C645.35082069 321.09598765 629.25121602 321.09825242 613.15161133 321.1015625 C612.00413177 321.10178889 610.85665221 321.10201529 609.67440054 321.10224854 C572.45861045 321.10983012 535.24294127 321.15059203 498.02719684 321.207455 C459.76894472 321.26571462 421.51083217 321.28775677 383.25253852 321.26523678 C377.85039335 321.26208012 372.44824805 321.25935223 367.04610252 321.25689316 C365.98291123 321.25639816 364.91971994 321.25590316 363.82431073 321.25539317 C346.70779229 321.24851876 329.59155005 321.28010004 312.47510132 321.32623382 C295.2748541 321.37181637 278.0749606 321.37767256 260.87468491 321.34283216 C250.65432986 321.32335577 240.43507972 321.33460442 230.21484917 321.38974785 C223.38718109 321.42357209 216.56030029 321.41747082 209.73265878 321.37900623 C205.84236235 321.35823276 201.95419833 321.35473602 198.06406192 321.39999105 C172.58028346 321.67803791 172.58028346 321.67803791 165.84035109 316.1517927 C163.63182185 313.94416034 161.80918726 311.53991998 160 309 C158.6985249 307.72964167 157.37268029 306.48269762 156.00390625 305.28515625 C154.85633009 304.21140835 153.70918979 303.13719443 152.5625 302.0625 C147.88982541 297.69206207 143.20598291 293.33455339 138.5 289 C133.17356122 284.09344369 127.87656896 279.15605834 122.5859375 274.2109375 C118.57030049 270.45970457 114.54169247 266.72313543 110.5 263 C105.17283236 258.09270764 99.87493069 253.15477977 94.58374023 248.20874023 C90.59046914 244.47816409 86.5829724 240.76372894 82.5625 237.0625 C76.99073536 231.93206325 71.46465147 226.75402436 65.94384766 221.56884766 C61.27232143 217.18445486 56.57676118 212.82748982 51.86328125 208.48828125 C47.7254898 204.67662115 43.60984858 200.84175806 39.5 197 C34.32985155 192.16745083 29.1488484 187.3473847 23.93383789 182.56323242 C20.9246417 179.79766209 17.9481004 177.00241038 14.99609375 174.17578125 C14.320625 173.53318359 13.64515625 172.89058594 12.94921875 172.22851562 C11.63488192 170.9767055 10.32601999 169.71911481 9.0234375 168.45507812 C8.42660156 167.88853516 7.82976562 167.32199219 7.21484375 166.73828125 C6.69011475 166.23337158 6.16538574 165.72846191 5.62475586 165.20825195 C3.77596312 163.67177994 3.77596312 163.67177994 0 163 C0 109.21 0 55.42 0 0 Z " fill="#16536F" transform="translate(426,388)"/>
<path d="M0 0 C1.51743638 -0.00313769 3.03487051 -0.00758755 4.55229971 -0.0132131 C8.69574585 -0.02481534 12.83898019 -0.01794794 16.98242259 -0.00787924 C21.50020529 -0.00023264 26.01795685 -0.01006327 30.53573507 -0.01760924 C38.44505895 -0.02842173 46.35432135 -0.02812951 54.26364803 -0.02046776 C66.02517276 -0.00910542 77.78664577 -0.01492925 89.54817017 -0.02409268 C110.55574349 -0.0398808 131.56328944 -0.03852438 152.57086536 -0.02985594 C170.95438565 -0.02230756 189.33789591 -0.02033998 207.72141743 -0.02392387 C209.55095996 -0.02426761 209.55095996 -0.02426761 211.41746294 -0.02461828 C216.36866338 -0.02555231 221.31986382 -0.02650751 226.27106424 -0.02749758 C272.71050707 -0.03667318 319.14993246 -0.02835629 365.58937259 -0.01220688 C406.844807 0.00203067 448.10020149 0.00075513 489.35563564 -0.01358986 C535.71196733 -0.02965464 582.06828362 -0.03602333 628.42461771 -0.02675307 C633.36645662 -0.02579092 638.30829555 -0.0248524 643.25013447 -0.02392387 C644.46693176 -0.02368664 645.68372906 -0.02344941 646.937399 -0.02320499 C665.30971098 -0.01979303 683.68201181 -0.02378254 702.05432224 -0.03136253 C722.94432756 -0.03993833 743.83430122 -0.03779997 764.7243026 -0.0215203 C776.41471337 -0.01271037 788.10505557 -0.01213799 799.79546457 -0.02345882 C807.60530695 -0.03018754 815.41509439 -0.02599642 823.22492863 -0.01294452 C827.67384246 -0.00581197 832.12262012 -0.00336022 836.57152963 -0.01416247 C840.62463721 -0.0239032 844.6774887 -0.01966506 848.73057787 -0.00462049 C850.18202112 -0.00161718 851.63348593 -0.00354901 853.08491192 -0.0112383 C873.99248894 -0.11407696 893.28969226 5.4685205 908.66886806 20.12752342 C923.66140834 35.83286276 928.90685481 54.52429523 928.79981899 75.79663658 C928.80328339 77.31392909 928.80805317 78.83121908 928.81400073 80.34850389 C928.82643603 84.48354507 928.82037438 88.6183765 928.81104207 92.75341809 C928.80421981 97.22765157 928.81474931 101.70185042 928.82298183 106.17607689 C928.83629447 114.93346822 928.83345044 123.69078222 928.82474391 132.44817653 C928.81794896 139.58097155 928.81705849 146.71374502 928.82031536 153.84654236 C928.82077506 154.86462343 928.82123476 155.8827045 928.82170839 156.93163652 C928.82266767 159.00058872 928.82364032 161.06954091 928.82462616 163.1384931 C928.8331752 182.52958994 928.82335829 201.9206442 928.80722506 221.31173406 C928.79386477 237.88064169 928.7961154 254.44948612 928.80998135 271.01839256 C928.82611935 290.31093979 928.83230681 309.60344954 928.82314456 328.89600259 C928.82218906 330.96345953 928.82124595 333.03091647 928.82031536 335.09837341 C928.81985253 336.11523927 928.81938971 337.13210513 928.81891286 338.1797851 C928.81634429 345.27732019 928.82064826 352.37483116 928.82775402 359.47236252 C928.83626297 368.16198526 928.83369726 376.85152697 928.81791179 385.5411407 C928.81014646 389.95854455 928.80672966 394.37581452 928.81685925 398.79321671 C928.85265607 415.86589449 928.55996639 432.79965709 927.03132534 449.81253624 C926.96959866 450.5001281 926.90787199 451.18771995 926.8442748 451.89614793 C920.88546031 516.61156549 897.60769385 578.69301003 853.53996181 627.03767967 C851.61100472 629.16557157 849.72850454 631.32473201 847.85636806 633.50252342 C841.88301868 640.34297191 835.36791584 646.54119601 828.41886806 652.37752342 C827.88825771 652.8272451 827.35764736 653.27696678 826.81095791 653.74031639 C761.08376349 709.22851086 674.74962283 736.30648033 332.93449306 756.59499168 C244.11959243 748.917209 153.65072942 727.06805093 24.63761806 644.41267967 C22.64187707 642.58207922 20.60656195 640.81915859 18.54386806 639.06502342 C9.24310229 630.92920205 1.08624089 622.05301771 -6.58113194 612.37752342 C-8.01846277 610.66904776 -9.45596638 608.96071744 -10.89363194 607.25252342 C-61.02003551 545.63881903 -76.15326235 469.16217946 -75.97330594 391.60924172 C-75.96636487 387.15825606 -75.97706835 382.70730172 -75.9852457 378.25632286 C-75.99842232 369.59474829 -75.99578032 360.93325269 -75.98700778 352.27167532 C-75.98017596 345.22979039 -75.97933793 338.18792727 -75.98257923 331.14603996 C-75.98303893 330.13613116 -75.98349863 329.12622237 -75.98397226 328.08571027 C-75.98493159 326.03306366 -75.98590424 323.98041706 -75.98689003 321.92777047 C-75.99539441 302.79375495 -75.98568368 283.65978294 -75.96948893 264.52577457 C-75.9560492 248.13893358 -75.95845346 231.75215627 -75.97224522 215.36531639 C-75.98831842 196.25922213 -75.99461373 177.15316557 -75.98540843 158.0470655 C-75.9844529 156.00894086 -75.98350979 153.97081622 -75.98257923 151.93269157 C-75.9821164 150.93026266 -75.98165358 149.92783374 -75.98117673 148.89502819 C-75.97859512 141.85848584 -75.98293901 134.82196761 -75.99001789 127.785429 C-75.99845068 119.21651562 -75.9961137 110.64768463 -75.98017566 102.07878062 C-75.97232319 97.71433953 -75.96915 93.3500356 -75.97912312 88.9855957 C-75.98813103 84.98304264 -75.98303824 80.98075261 -75.96719046 76.97822306 C-75.96386878 75.53889471 -75.96547702 74.09954365 -75.97281782 72.66023019 C-76.03063994 60.37074632 -74.82924107 48.18520096 -68.95613194 37.19002342 C-68.60840733 36.52349754 -68.26068272 35.85697166 -67.902421 35.17024803 C-59.61575513 19.82587098 -46.91941506 9.38394532 -30.58113194 3.37752342 C-20.3686845 0.6655282 -10.55487513 -0.056016 0 0 Z " fill="#5DCFFF" transform="translate(501.58113193511963,707.6224765777588)"/>
<path d="M0 0 C232.65 0 465.3 0 705 0 C705 268.68246445 705 268.68246445 699.1875 290.5 C698.92888184 291.49644531 698.67026367 292.49289062 698.40380859 293.51953125 C696.22575953 301.65654313 693.53533746 309.34010217 690 317 C689.70899414 317.64340332 689.41798828 318.28680664 689.11816406 318.94970703 C669.88141501 361.11788233 630.23692502 386.56928872 588.09057617 402.49682617 C538.56288097 420.57625421 485.84687259 427.8253793 433.50982666 431.80859375 C431.1629008 431.98757674 428.81657801 432.17319162 426.47021484 432.359375 C402.4597758 434.21475929 378.38868966 434.20445163 354.32117081 434.24497986 C351.80259349 434.24989731 349.28404013 434.2578044 346.76547241 434.26623535 C317.14734888 434.3512414 287.52189533 433.53174056 258.0625 430.25 C257.30202362 430.16763092 256.54154724 430.08526184 255.75802612 430.00039673 C176.06887879 421.30538938 86.15892541 400.14077844 33 335 C-34.89930368 246.88488315 0 78.39532875 0 0 Z " fill="#16536F" transform="translate(576,871)"/>
<path d="M0 0 C0.06899402 33.43546912 0.12169378 66.87092022 0.15319599 100.30644497 C0.15694713 104.27330718 0.1608302 108.24016925 0.16479492 112.20703125 C0.16558185 112.99660684 0.16636878 113.78618243 0.16717956 114.59968455 C0.1801564 127.3060947 0.20376652 140.01246323 0.23145839 152.71884887 C0.25972956 165.80229402 0.27622154 178.88571771 0.28226548 191.96919215 C0.28597642 199.29878966 0.29481898 206.62830034 0.31719017 213.95786667 C0.42769657 251.28084798 0.50905545 288.25769608 -7 325 C-7.19932129 325.97598145 -7.39864258 326.95196289 -7.60400391 327.95751953 C-12.82745038 352.78799065 -20.7173319 377.25010014 -32 400 C-32.37560059 400.77279297 -32.75120117 401.54558594 -33.13818359 402.34179688 C-44.05284128 424.66031043 -58.38102183 445.08441384 -75.37109375 463.18359375 C-77.8614979 465.85161959 -80.27759344 468.571903 -82.6875 471.3125 C-85.9098752 474.9005348 -89.24570267 478.13887406 -92.93359375 481.2421875 C-95.18746984 483.1594734 -97.33492847 485.17062201 -99.5 487.1875 C-110.71788782 497.28875273 -123.28566806 505.90163436 -136 514 C-136.57476074 514.36657715 -137.14952148 514.7331543 -137.74169922 515.11083984 C-149.41546237 522.48426519 -161.68527272 528.77688352 -174 535 C-174.73943848 535.37511719 -175.47887695 535.75023437 -176.24072266 536.13671875 C-250.0657645 573.23580115 -336.59930858 585.93969464 -488 594 C-489.22686523 594.01659668 -490.45373047 594.03319336 -491.71777344 594.05029297 C-499.48054837 594.13897911 -507.23761901 594.111853 -515 594 C-516.27037109 593.98211426 -517.54074219 593.96422852 -518.84960938 593.94580078 C-605.41472873 592.59128278 -693.31314766 580.93919173 -869 501 C-869.64727051 500.53384277 -870.29454102 500.06768555 -870.96142578 499.58740234 C-895.91005789 481.48577709 -918.15826826 460.83682865 -936.50537109 436.01660156 C-937.83988948 434.21602628 -939.19217133 432.43083894 -940.55078125 430.6484375 C-955.07620229 411.29693279 -966.16017403 389.40417137 -975.125 367 C-975.58700806 365.85942139 -975.58700806 365.85942139 -976.05834961 364.69580078 C-978.12022779 359.36068336 -978.12022779 359.36068336 -977 356 C-974.60864258 354.67236328 -974.60864258 354.67236328 -971.39453125 353.3203125 C-969.60112305 352.55557617 -969.60112305 352.55557617 -967.77148438 351.77539062 C-966.45185858 351.22517489 -965.13219608 350.67504715 -963.8125 350.125 C-962.44938381 349.54736946 -961.08676026 348.96857511 -959.72460938 348.38867188 C-956.89072974 347.18328883 -954.05478242 345.98297373 -951.21728516 344.78613281 C-945.40971526 342.33215522 -939.62855495 339.81785884 -933.84716797 337.30297852 C-930.72627039 335.94629967 -927.60322157 334.59458907 -924.48046875 333.2421875 C-919.54464085 331.1037056 -914.60990713 328.96271853 -909.67578125 326.8203125 C-890.47641925 318.48618892 -871.24316246 310.23242986 -852 302 C-851.67 292.1 -851.34 282.2 -851 272 C-850.67 272 -850.34 272 -850 272 C-849.56300781 273.77890625 -849.56300781 273.77890625 -849.1171875 275.59375 C-839.66999891 313.25722046 -819.9368669 344.10896404 -789 368 C-788.45923828 368.42249023 -787.91847656 368.84498047 -787.36132812 369.28027344 C-728.32356595 415.1501352 -649.27427457 429.89709551 -576.5 435.75 C-575.76792328 435.80907532 -575.03584656 435.86815063 -574.28158569 435.92901611 C-569.19043421 436.3323027 -564.09685466 436.67766238 -559 437 C-558.27800415 437.0483902 -557.5560083 437.0967804 -556.81213379 437.14663696 C-537.81871409 438.38722627 -518.77429814 438.20038693 -499.75 438.1875 C-498.86964584 438.18723312 -497.98929169 438.18696625 -497.08226013 438.18669128 C-470.67880658 438.1766358 -444.33667106 438.07806749 -418 436 C-417.15159546 435.93447937 -416.30319092 435.86895874 -415.42907715 435.80145264 C-353.7933016 431.01348565 -290.10639588 422.48215577 -234 395 C-232.88939209 394.45907715 -232.88939209 394.45907715 -231.75634766 393.90722656 C-195.22260816 375.90321857 -166.40311301 347.79859016 -152.59106445 308.98632812 C-144.61801671 285.35295043 -141.70856617 261.63742009 -141.68115234 236.80249023 C-141.67182914 234.83941242 -141.66165702 232.87633848 -141.65071106 230.91326904 C-141.62366634 225.63965871 -141.60833837 220.36607469 -141.59528303 215.09241366 C-141.57953942 209.56044455 -141.55278567 204.02852832 -141.5272522 198.49659729 C-141.48066165 188.04593157 -141.44382273 177.59525567 -141.41057932 167.14453989 C-141.37221768 155.23623774 -141.3228448 143.32798897 -141.27259517 131.41973197 C-141.16956904 106.94652765 -141.08021426 82.47328898 -141 58 C-139.26431335 57.2068009 -137.52815754 56.41462836 -135.79180908 55.62287903 C-134.82503864 55.18162595 -133.8582682 54.74037287 -132.86220169 54.28574848 C-128.83527159 52.47678468 -124.76231582 50.79582159 -120.671875 49.13671875 C-119.38989479 48.61352303 -119.38989479 48.61352303 -118.08201599 48.07975769 C-115.30546962 46.94705058 -112.52772754 45.81730703 -109.75 44.6875 C-107.78545882 43.8864863 -105.82102365 43.08521256 -103.85668945 42.28369141 C-100.84469902 41.05472457 -97.83264656 39.82591247 -94.82026672 38.59790039 C-85.27009945 34.70464573 -75.72789597 30.79212533 -66.1875 26.875 C-63.81678162 25.90185923 -61.446037 24.92878239 -59.07528687 23.95571899 C-57.49310061 23.30631525 -55.91092692 22.65688092 -54.32876587 22.00741577 C-49.18305274 19.89532283 -44.0366126 17.78500984 -38.88972473 15.67578125 C-35.29271749 14.20170186 -31.69587179 12.7272285 -28.09902954 11.25274658 C-26.38652301 10.55085316 -24.67393942 9.84914771 -22.96127319 9.14764404 C-20.58855792 8.17575777 -18.21612562 7.20318375 -15.84375 6.23046875 C-15.15074295 5.94681961 -14.4577359 5.66317047 -13.74372864 5.3709259 C-10.50623675 4.04277317 -7.28170515 2.69281926 -4.07226562 1.2980957 C-1 0 -1 0 0 0 Z " fill="#00B4FF" transform="translate(1426,870)"/>
<path d="M0 0 C39.0739136 5.74616376 39.0739136 5.74616376 56.53491211 8.53564453 C58.56131672 8.85779474 60.58774985 9.17976557 62.61420822 9.50157738 C68.03651041 10.36314751 73.45843193 11.22709058 78.88028312 12.09149361 C84.72478713 13.02281064 90.56966519 13.95177464 96.414505 14.88098145 C106.40993124 16.47029678 116.40515827 18.0608596 126.40026855 19.65216064 C141.39565294 22.03940214 156.39168322 24.4225697 171.38787988 26.80470273 C174.68502998 27.32845833 177.98217384 27.85225322 181.27931786 28.37604713 C181.93303255 28.47989799 182.58674725 28.58374885 183.26027148 28.6907467 C184.58149901 28.9006406 185.90272649 29.11053481 187.22395392 29.32042931 C188.54541635 29.53036062 189.86687898 29.74029077 191.18834178 29.95021977 C206.36182923 32.36069843 221.53521179 34.77183664 236.70849609 37.18359375 C237.99338086 37.38782227 239.27826563 37.5920508 240.60208631 37.80246806 C259.55136081 40.81454428 278.49998974 43.83065763 297.44823039 46.84923005 C314.53866198 49.57175575 331.62992916 52.28898 348.72211742 55.00045586 C358.70598586 56.58448753 368.68909098 58.17316049 378.67117542 59.76839662 C385.41868711 60.84629176 392.16709703 61.91843571 398.91622978 62.98613334 C402.73059103 63.58972783 406.54454582 64.19559279 410.35738564 64.80873108 C460.53627942 72.8724372 510.89779854 76.25566266 561.46289062 69.46557617 C562.71291115 69.29779506 563.96293167 69.13001394 565.2508316 68.95714855 C587.00739336 65.98475668 608.67890069 62.38997339 630.36248899 58.93469501 C636.46543933 57.96257322 642.56907283 56.99475433 648.67263655 56.02649269 C660.95862965 54.07735236 673.24410352 52.12495928 685.52926636 50.17059326 C702.79250334 47.42433437 720.05652747 44.6830467 737.32072292 41.94282043 C744.08471799 40.86919669 750.84868798 39.79541505 757.61265564 38.72161865 C758.72559489 38.54493859 758.72559489 38.54493859 759.86101777 38.36468923 C771.06420266 36.58614975 782.26726225 34.80682253 793.4702301 33.0269165 C794.20155164 32.91072562 794.93287318 32.79453474 795.68635597 32.67482293 C798.6181506 32.20902244 801.54994439 31.7432167 804.48173749 31.27740657 C844.39787085 24.93543823 884.31529436 18.60163396 924.2349987 12.28217793 C933.45756999 10.82218223 942.67996772 9.36110168 951.90209001 7.89827245 C958.02859504 6.92653451 964.15526455 5.95583901 970.28208166 4.98607069 C973.719237 4.44199707 977.15631545 3.89745 980.59318352 3.35156441 C984.22002195 2.77576837 987.84714949 2.20183155 991.47436523 1.62841797 C992.52889137 1.46053426 993.58341751 1.29265055 994.66989899 1.11967945 C995.61849037 0.97012145 996.56708176 0.82056345 997.54441833 0.66647339 C998.36353415 0.53666517 999.18264997 0.40685696 1000.02658749 0.27311516 C1002 0 1002 0 1004 0 C1004 53.79 1004 107.58 1004 163 C962.60234412 169.89960931 962.60234412 169.89960931 943.09716797 172.98803711 C940.84330506 173.34599302 938.58946117 173.70406875 936.33563423 174.06225109 C930.31055258 175.01941065 924.28520201 175.97486675 918.25979233 176.92995882 C912.46215685 177.84922191 906.66473186 178.76981004 900.8672938 179.69031721 C885.67198547 182.10291525 870.47622953 184.51268768 855.28038628 186.92191392 C848.15291571 188.05195132 841.02549353 189.1822938 833.89807265 190.31264452 C810.43086771 194.03432229 786.96354762 197.75527318 763.49581909 201.47364807 C762.80481409 201.58313545 762.11380909 201.69262284 761.40186454 201.80542802 C755.90751918 202.67598376 750.41317134 203.54652393 744.91881934 204.41703777 C725.72951715 207.45735207 706.54066967 210.50051494 687.35236907 213.54714429 C672.44572498 215.91389413 657.53853668 218.27717976 642.63052559 220.63530445 C635.07762545 221.83008007 627.52497847 223.02639419 619.9730835 224.22750854 C613.1004715 225.32057859 606.22700834 226.40814142 599.35290527 227.49179459 C596.9409247 227.87288316 594.52922087 228.25572937 592.11785889 228.64071274 C563.8405585 233.15294299 535.95617331 236.19316903 507.31298828 236.24023438 C503.82689112 236.24978925 500.34142446 236.28082299 496.85546875 236.3125 C484.48484606 236.37167807 472.19194872 235.98477661 459.86621094 234.90795898 C459.15134364 234.84575649 458.43647635 234.78355399 457.6999464 234.71946657 C438.1473588 232.97384122 418.81382363 229.78799503 399.44519997 226.65470862 C393.9622487 225.7705993 388.47704355 224.900681 382.99206543 224.0292511 C373.4136167 222.5059695 363.83638134 220.97525079 354.25976562 219.44049072 C339.19258371 217.02678609 324.12144367 214.63834628 309.04940534 212.25520715 C305.61457954 211.71208774 302.17978054 211.16879891 298.74497986 210.62552071 C297.71688518 210.46290841 297.71688518 210.46290841 296.6680209 210.29701103 C295.27847404 210.07722708 293.88892746 209.85744128 292.49938118 209.63765363 C291.10355451 209.4168763 289.70772649 209.1961074 288.31189716 208.97534688 C272.67817036 206.50272055 257.04544298 204.02380396 241.41290164 201.54369536 C239.25281458 201.20099868 237.09272488 200.85831869 234.93263435 200.51564384 C227.69924011 199.36814061 220.46585746 198.22056437 213.23248291 197.07293701 C191.4399084 193.6154009 169.64719011 190.15877109 147.85433865 186.70298111 C140.87746568 185.59662395 133.90060906 184.49016405 126.92379761 183.38341904 C101.42303903 179.33825975 75.92226372 175.29342196 50.4140625 171.29541016 C49.54663957 171.15940938 48.67921663 171.02340861 47.78550816 170.8832866 C40.06870748 169.67347974 32.35173191 168.46483492 24.63366413 167.26313543 C21.46067399 166.76878135 18.28799336 166.27244651 15.11523438 165.77661133 C14.01968231 165.60694414 12.92413025 165.43727695 11.79537964 165.26246834 C10.80986115 165.10820318 9.82434265 164.95393803 8.80895996 164.79499817 C7.96791466 164.6642027 7.12686935 164.53340723 6.26033783 164.39864826 C4.15461179 164.02726837 2.07438273 163.51859568 0 163 C0 109.21 0 55.42 0 0 Z " fill="#99BF00" transform="translate(426,388)"/>
<path d="M0 0 C39.0739136 5.74616376 39.0739136 5.74616376 56.53491211 8.53564453 C58.56131672 8.85779474 60.58774985 9.17976557 62.61420822 9.50157738 C68.03651041 10.36314751 73.45843193 11.22709058 78.88028312 12.09149361 C84.72478713 13.02281064 90.56966519 13.95177464 96.414505 14.88098145 C106.40993124 16.47029678 116.40515827 18.0608596 126.40026855 19.65216064 C141.39565294 22.03940214 156.39168322 24.4225697 171.38787988 26.80470273 C174.68502998 27.32845833 177.98217384 27.85225322 181.27931786 28.37604713 C181.93303255 28.47989799 182.58674725 28.58374885 183.26027148 28.6907467 C184.58149901 28.9006406 185.90272649 29.11053481 187.22395392 29.32042931 C188.54541635 29.53036062 189.86687898 29.74029077 191.18834178 29.95021977 C206.36182923 32.36069843 221.53521179 34.77183664 236.70849609 37.18359375 C237.99338086 37.38782227 239.27826563 37.5920508 240.60208631 37.80246806 C259.55136081 40.81454428 278.49998974 43.83065763 297.44823039 46.84923005 C314.53866198 49.57175575 331.62992916 52.28898 348.72211742 55.00045586 C358.70598586 56.58448753 368.68909098 58.17316049 378.67117542 59.76839662 C385.41868711 60.84629176 392.16709703 61.91843571 398.91622978 62.98613334 C402.73059103 63.58972783 406.54454582 64.19559279 410.35738564 64.80873108 C460.53627942 72.8724372 510.89779854 76.25566266 561.46289062 69.46557617 C562.71291115 69.29779506 563.96293167 69.13001394 565.2508316 68.95714855 C587.00739336 65.98475668 608.67890069 62.38997339 630.36248899 58.93469501 C636.46543933 57.96257322 642.56907283 56.99475433 648.67263655 56.02649269 C660.95862965 54.07735236 673.24410352 52.12495928 685.52926636 50.17059326 C702.79250334 47.42433437 720.05652747 44.6830467 737.32072292 41.94282043 C744.08471799 40.86919669 750.84868798 39.79541505 757.61265564 38.72161865 C758.72559489 38.54493859 758.72559489 38.54493859 759.86101777 38.36468923 C771.06420266 36.58614975 782.26726225 34.80682253 793.4702301 33.0269165 C794.20155164 32.91072562 794.93287318 32.79453474 795.68635597 32.67482293 C798.6181506 32.20902244 801.54994439 31.7432167 804.48173749 31.27740657 C844.39787085 24.93543823 884.31529436 18.60163396 924.2349987 12.28217793 C933.45756999 10.82218223 942.67996772 9.36110168 951.90209001 7.89827245 C958.02859504 6.92653451 964.15526455 5.95583901 970.28208166 4.98607069 C973.719237 4.44199707 977.15631545 3.89745 980.59318352 3.35156441 C984.22002195 2.77576837 987.84714949 2.20183155 991.47436523 1.62841797 C992.52889137 1.46053426 993.58341751 1.29265055 994.66989899 1.11967945 C995.61849037 0.97012145 996.56708176 0.82056345 997.54441833 0.66647339 C998.36353415 0.53666517 999.18264997 0.40685696 1000.02658749 0.27311516 C1002 0 1002 0 1004 0 C1004 53.79 1004 107.58 1004 163 C962.60234412 169.89960931 962.60234412 169.89960931 943.09716797 172.98803711 C940.84330506 173.34599302 938.58946117 173.70406875 936.33563423 174.06225109 C930.31055258 175.01941065 924.28520201 175.97486675 918.25979233 176.92995882 C912.46215685 177.84922191 906.66473186 178.76981004 900.8672938 179.69031721 C885.67198547 182.10291525 870.47622953 184.51268768 855.28038628 186.92191392 C848.15291571 188.05195132 841.02549353 189.1822938 833.89807265 190.31264452 C810.43086771 194.03432229 786.96354762 197.75527318 763.49581909 201.47364807 C762.80481409 201.58313545 762.11380909 201.69262284 761.40186454 201.80542802 C755.90751918 202.67598376 750.41317134 203.54652393 744.91881934 204.41703777 C725.72951715 207.45735207 706.54066967 210.50051494 687.35236907 213.54714429 C672.44572498 215.91389413 657.53853668 218.27717976 642.63052559 220.63530445 C635.07762545 221.83008007 627.52497847 223.02639419 619.9730835 224.22750854 C613.1004715 225.32057859 606.22700834 226.40814142 599.35290527 227.49179459 C596.9409247 227.87288316 594.52922087 228.25572937 592.11785889 228.64071274 C563.8405585 233.15294299 535.95617331 236.19316903 507.31298828 236.24023438 C503.82689112 236.24978925 500.34142446 236.28082299 496.85546875 236.3125 C484.48484606 236.37167807 472.19194872 235.98477661 459.86621094 234.90795898 C459.15134364 234.84575649 458.43647635 234.78355399 457.6999464 234.71946657 C438.1473588 232.97384122 418.81382363 229.78799503 399.44519997 226.65470862 C393.9622487 225.7705993 388.47704355 224.900681 382.99206543 224.0292511 C373.4136167 222.5059695 363.83638134 220.97525079 354.25976562 219.44049072 C339.19258371 217.02678609 324.12144367 214.63834628 309.04940534 212.25520715 C305.61457954 211.71208774 302.17978054 211.16879891 298.74497986 210.62552071 C297.71688518 210.46290841 297.71688518 210.46290841 296.6680209 210.29701103 C295.27847404 210.07722708 293.88892746 209.85744128 292.49938118 209.63765363 C291.10355451 209.4168763 289.70772649 209.1961074 288.31189716 208.97534688 C272.67817036 206.50272055 257.04544298 204.02380396 241.41290164 201.54369536 C239.25281458 201.20099868 237.09272488 200.85831869 234.93263435 200.51564384 C227.69924011 199.36814061 220.46585746 198.22056437 213.23248291 197.07293701 C191.4399084 193.6154009 169.64719011 190.15877109 147.85433865 186.70298111 C140.87746568 185.59662395 133.90060906 184.49016405 126.92379761 183.38341904 C101.42303903 179.33825975 75.92226372 175.29342196 50.4140625 171.29541016 C49.54663957 171.15940938 48.67921663 171.02340861 47.78550816 170.8832866 C40.06870748 169.67347974 32.35173191 168.46483492 24.63366413 167.26313543 C21.46067399 166.76878135 18.28799336 166.27244651 15.11523438 165.77661133 C14.01968231 165.60694414 12.92413025 165.43727695 11.79537964 165.26246834 C10.80986115 165.10820318 9.82434265 164.95393803 8.80895996 164.79499817 C7.96791466 164.6642027 7.12686935 164.53340723 6.26033783 164.39864826 C4.15461179 164.02726837 2.07438273 163.51859568 0 163 C0 109.21 0 55.42 0 0 Z M4 5 C4 55.82 4 106.64 4 159 C9.45552819 160.36388205 14.73242845 161.53762018 20.26092529 162.39860535 C21.45382836 162.58881455 21.45382836 162.58881455 22.67083049 162.78286636 C25.32527561 163.20523089 27.98049476 163.62250627 30.63574219 164.03979492 C32.55929572 164.34477727 34.48279949 164.65007364 36.40625763 164.95565701 C41.67425308 165.79166732 46.942942 166.62323213 52.2117548 167.45407343 C57.86967283 168.34708519 63.52692853 169.24427431 69.18426514 170.14096069 C80.20673493 171.88734382 91.22979788 173.62995405 102.25308776 175.3711524 C115.03753521 177.39061344 127.82150823 179.41306938 140.60544205 181.43577898 C147.09786922 182.46302305 153.59031257 183.49016487 160.08276367 184.51725769 C162.02398983 184.82435688 162.02398983 184.82435688 164.00443268 185.13766009 C172.59097206 186.49595313 181.17762073 187.85355335 189.764328 189.21078459 C221.94566333 194.29752093 254.12450146 199.39974534 286.30055356 204.51980585 C300.95708124 206.85190219 315.61428978 209.17971327 330.27155685 211.50715733 C341.93215357 213.35895738 353.59217113 215.2143288 365.2514956 217.07412243 C373.20852742 218.3429845 381.16629268 219.60717709 389.12462974 220.86782646 C393.66935799 221.58788555 398.21375432 222.30987478 402.75725555 223.03763962 C422.46689257 226.19327993 442.12380959 229.07341861 462 231 C462.71952347 231.07061205 463.43904694 231.1412241 464.18037415 231.21397591 C503.6781973 235.03351012 543.63675884 231.71333972 582.703125 225.796875 C583.80454079 225.63049278 584.90595657 225.46411057 586.0407486 225.29268646 C623.07036071 219.68829231 660.04289477 213.71135918 697.02494878 207.80332839 C717.00758789 204.61116516 736.99119748 201.42508041 756.97484899 198.2392621 C760.39188296 197.69448918 763.80890216 197.14962364 767.22591972 196.60474777 C799.51516906 191.45630644 831.80869023 186.33549472 864.10651541 181.24113464 C868.28526104 180.5819621 872.46396266 179.92251081 876.64266455 179.26306105 C894.45964727 176.4513979 912.2768004 173.64084224 930.09541255 170.83952177 C937.38131835 169.69392391 944.6668367 168.54588407 951.95206326 167.39597476 C956.93145282 166.61016755 961.91130096 165.827364 966.89155138 165.04703236 C969.90580205 164.57397464 972.91957441 164.09792543 975.93321466 163.620996 C977.30781349 163.40406564 978.68260531 163.18835386 980.05760908 162.97400522 C981.92923489 162.68206677 983.80009323 162.38522085 985.6709137 162.08816528 C986.70773568 161.92508944 987.74455767 161.76201359 988.8127985 161.59399605 C992.57600234 160.89265093 996.28629399 159.9284265 1000 159 C1000 108.18 1000 57.36 1000 5 C987.13486037 6.75433722 974.30210294 8.51042933 961.48521328 10.55926895 C960.52151754 10.71301247 959.55782181 10.86675599 958.56492317 11.02515841 C957.56630858 11.18451482 956.56769399 11.34387124 955.53881836 11.50805664 C953.37655171 11.85124625 951.21425079 12.19421993 949.05191898 12.53699875 C943.20579068 13.46433893 937.36012966 14.39459428 931.51454735 15.32536912 C925.25176145 16.32202001 918.98852959 17.31586068 912.7253418 18.3099823 C902.70675154 19.90047705 892.68835692 21.49219621 882.67013766 23.08502588 C865.96386973 25.74119132 849.25688082 28.3927987 832.5496418 31.04284844 C829.04813464 31.59825375 825.54663457 32.15370379 822.04513454 32.70915413 C821.35155737 32.81917774 820.6579802 32.92920135 819.94338554 33.04255901 C818.54228393 33.2648192 817.14118239 33.48707988 815.74008093 33.70934103 C814.33979001 33.93147319 812.93949888 34.15360402 811.53920754 34.37573351 C795.51819844 36.91716663 779.49733403 39.45951109 763.4765625 42.00244141 C762.80188512 42.10952937 762.12720774 42.21661734 761.43208559 42.3269504 C741.45778034 45.49738929 721.48401637 48.67122238 701.51065242 51.84758604 C684.91330261 54.48696149 668.31513106 57.12111191 651.71599674 59.74924183 C642.19392289 61.25706453 632.67260532 62.76948419 623.15231717 64.28854185 C616.74605252 65.31031011 610.33890151 66.32638707 603.93102729 67.33801168 C600.33197196 67.90636879 596.73331484 68.47693533 593.13577271 69.05480003 C541.05229377 77.41486898 489.13613283 79.96713443 436.74682617 72.76098633 C435.95064955 72.6524576 435.15447293 72.54392886 434.33416975 72.43211138 C417.63242191 70.15174902 400.98443814 67.56764945 384.34247994 64.88988161 C380.21651145 64.2271134 376.08966949 63.56982219 371.9629364 62.91183472 C364.81283386 61.77113438 357.66320967 60.6274786 350.51391602 59.48171997 C339.10183047 57.65291089 327.68871459 55.83058377 316.27539062 54.00952148 C314.299392 53.69422096 312.32339344 53.37892001 310.34739494 53.06361866 C307.34210959 52.58408409 304.33682259 52.10455981 301.33153045 51.62506777 C295.18453704 50.64428917 289.0376186 49.66304216 282.89075601 48.68144399 C235.61914924 41.13277046 188.3384799 33.64140935 141.05697411 26.155029 C132.18076343 24.74956798 123.30464954 23.3434965 114.42856318 21.93725061 C104.96756738 20.43834919 95.50651012 18.93983614 86.04541969 17.44153214 C82.17519226 16.82862273 78.30498279 16.21560016 74.43478966 15.60247421 C64.98683557 14.10580582 55.53866942 12.61050089 46.08982629 11.11945438 C42.1208425 10.49310026 38.15200334 9.86585774 34.18347168 9.23664474 C30.3695643 8.63196794 26.55532251 8.02944803 22.74081039 7.42859828 C21.34160724 7.20781409 19.94252788 6.98624364 18.54358292 6.76382935 C16.64511517 6.46212215 14.74615418 6.16352353 12.84716797 5.86509705 C11.25242142 5.61298163 11.25242142 5.61298163 9.62545776 5.35577297 C6.94610395 4.93285917 6.94610395 4.93285917 4 5 Z " fill="#FFFFFF" transform="translate(426,388)"/>
<path d="M0 0 C1.51277281 -0.00239335 3.02554445 -0.00566078 4.53831372 -0.0097166 C8.68742202 -0.01831239 12.83643951 -0.01452024 16.98554914 -0.00866088 C21.50255676 -0.00448317 26.01954803 -0.01189672 30.53655165 -0.01781338 C38.45071433 -0.02657248 46.36485113 -0.02788852 54.27901745 -0.02431011 C66.04781143 -0.01900286 77.81658037 -0.02509864 89.58537163 -0.03339304 C111.82713085 -0.04863751 134.06887869 -0.05033766 156.31064204 -0.04787002 C173.48512935 -0.04603772 190.65961293 -0.04779564 207.83409977 -0.05209446 C210.30110593 -0.05269686 212.7681121 -0.05329806 215.23511827 -0.05389806 C218.95261071 -0.05480531 222.67010316 -0.05571398 226.3875956 -0.05663041 C260.95329521 -0.06506064 295.51899341 -0.06939515 330.08469391 -0.06522369 C331.38789742 -0.06506732 332.69110094 -0.06491094 334.03379547 -0.06474983 C340.63902137 -0.06394404 347.24424726 -0.06309827 353.84947316 -0.06223653 C355.16130344 -0.06206544 356.47313372 -0.06189435 357.82471644 -0.06171808 C360.47755597 -0.06137142 363.13039549 -0.06102289 365.78323502 -0.06067249 C407.06486864 -0.05531484 448.34647035 -0.06324667 489.6281004 -0.08170605 C536.00344561 -0.1024188 582.37877759 -0.11315016 628.75412768 -0.10913056 C633.69827568 -0.10873521 638.64242369 -0.10837367 643.58657169 -0.10803318 C645.41264664 -0.10789708 645.41264664 -0.10789708 647.27561199 -0.10775824 C665.65849773 -0.10659194 684.04137011 -0.11324299 702.42425251 -0.1238451 C723.32899171 -0.13588933 744.23370149 -0.137465 765.13844112 -0.12505493 C776.83772042 -0.11842063 788.53692937 -0.12007061 800.23620306 -0.13364345 C808.05209549 -0.14188006 815.86793515 -0.13920063 823.68382328 -0.12766818 C828.13626589 -0.12140401 832.58857109 -0.11983101 837.04100583 -0.13153151 C841.0973608 -0.14209297 845.15346234 -0.13866653 849.20980388 -0.12442699 C850.66243396 -0.12171485 852.11508462 -0.12394302 853.56769526 -0.13193413 C874.47913353 -0.23905335 893.77892785 5.34265536 909.16105938 20.00447559 C924.15359965 35.70981493 929.39904613 54.4012474 929.29201031 75.67358875 C929.29547471 77.19088126 929.30024448 78.70817125 929.30619204 80.22545606 C929.31862735 84.36049724 929.31256569 88.49532867 929.30323339 92.63037026 C929.29641112 97.10460374 929.30694062 101.57880259 929.31517315 106.05302906 C929.32848579 114.81042039 929.32564176 123.56773439 929.31693523 132.3251287 C929.31014027 139.45792372 929.30924981 146.59069719 929.31250668 153.72349453 C929.31296637 154.7415756 929.31342607 155.75965667 929.3138997 156.80858869 C929.31485899 158.87754089 929.31583163 160.94649308 929.31681748 163.01544527 C929.32536651 182.40654211 929.3155496 201.79759638 929.29941638 221.18868623 C929.28605608 237.75759386 929.28830671 254.32643829 929.30217266 270.89534473 C929.31831066 290.18789197 929.32449812 309.48040172 929.31533587 328.77295476 C929.31438038 330.8404117 929.31343726 332.90786864 929.31250668 334.97532558 C929.31204385 335.99219144 929.31158102 337.0090573 929.31110417 338.05673727 C929.3085356 345.15427236 929.31283958 352.25178334 929.31994534 359.34931469 C929.32845429 368.03893743 929.32588858 376.72847914 929.3101031 385.41809287 C929.30233777 389.83549672 929.29892097 394.25276669 929.30905056 398.67016888 C929.34484739 415.74284666 929.05215771 432.67660926 927.52351665 449.68948841 C927.46178998 450.37708027 927.4000633 451.06467213 927.33646612 451.7731001 C921.37765163 516.48851766 898.09988517 578.56996221 854.03215313 626.91463184 C852.10319603 629.04252374 850.22069585 631.20168418 848.34855938 633.37947559 C842.37521 640.21992408 835.86010715 646.41814819 828.91105938 652.25447559 C828.38044903 652.70419727 827.84983868 653.15391895 827.30314922 653.61726856 C761.57595481 709.10546303 675.24181415 736.1834325 333.42668438 756.47194386 C244.61178374 748.79416117 154.14292074 726.9450031 25.12980938 644.28963184 C23.13406839 642.45903139 21.09875327 640.69611076 19.03605938 638.94197559 C9.7352936 630.80615422 1.57843221 621.92996988 -6.08894062 612.25447559 C-7.52627146 610.54599993 -8.96377507 608.83766961 -10.40144062 607.12947559 C-60.52784419 545.5157712 -75.66107104 469.03913163 -75.48111463 391.4861939 C-75.47417356 387.03520823 -75.48487703 382.58425389 -75.49305439 378.13327503 C-75.50623101 369.47170046 -75.503589 360.81020487 -75.49481647 352.14862749 C-75.48798464 345.10674256 -75.48714662 338.06487945 -75.49038792 331.02299213 C-75.49084762 330.01308334 -75.49130731 329.00317454 -75.49178094 327.96266244 C-75.49274028 325.91001584 -75.49371292 323.85736923 -75.49469872 321.80472264 C-75.5032031 302.67070712 -75.49349236 283.53673512 -75.47729762 264.40272674 C-75.46385789 248.01588575 -75.46626214 231.62910845 -75.4800539 215.24226856 C-75.4961271 196.1361743 -75.50242241 177.03011774 -75.49321711 157.92401767 C-75.49226159 155.88589303 -75.49131847 153.84776839 -75.49038792 151.80964375 C-75.48992509 150.80721483 -75.48946226 149.80478591 -75.48898541 148.77198036 C-75.4864038 141.73543801 -75.49074769 134.69891979 -75.49782658 127.66238117 C-75.50625936 119.09346779 -75.50392239 110.5246368 -75.48798434 101.95573279 C-75.48013188 97.5912917 -75.47695869 93.22698777 -75.4869318 88.86254787 C-75.49593972 84.85999481 -75.49084693 80.85770478 -75.47499914 76.85517523 C-75.47167746 75.41584688 -75.4732857 73.97649582 -75.48062651 72.53718236 C-75.52556185 62.9866477 -74.44571191 54.49863759 -72.08894062 45.25447559 C-70.96072601 48.63911941 -71.34410108 50.80861449 -72.08894062 54.25447559 C-72.19044067 56.39041038 -72.24093071 58.52903033 -72.25668144 60.66731739 C-72.26853967 61.97089412 -72.2803979 63.27447084 -72.29261547 64.6175499 C-72.30081793 66.0629307 -72.30889531 67.50831222 -72.31686115 68.95369434 C-72.32875552 70.49118334 -72.34103261 72.02866942 -72.35365957 73.56615257 C-72.3869908 77.7957802 -72.41391013 82.02542773 -72.439551 86.25510812 C-72.46227479 89.88478818 -72.48854543 93.51443963 -72.51465315 97.14409667 C-72.76269762 131.85187467 -72.89388828 166.56042912 -73.00006676 201.26889515 C-73.01421 205.80982517 -73.02862651 210.35075424 -73.04328632 214.89168262 C-73.04691779 216.0200439 -73.05054925 217.14840518 -73.05429076 218.31095922 C-73.11422786 236.40092761 -73.23374497 254.48999478 -73.37752087 272.57946992 C-73.52475638 291.26472005 -73.60782348 309.94951239 -73.63502687 328.63532543 C-73.65189285 339.07953591 -73.69475563 349.52204113 -73.81118679 359.96565723 C-74.35738574 410.46992742 -70.89443919 457.29765058 -58.48735654 506.39839077 C-58.17220016 507.64798265 -57.85704377 508.89757454 -57.53233719 510.18503284 C-57.25291777 511.26787587 -56.97349834 512.3507189 -56.68561167 513.46637535 C-56.08894062 516.25447559 -56.08894062 516.25447559 -56.08894062 520.25447559 C-55.09894062 519.92447559 -54.10894062 519.59447559 -53.08894062 519.25447559 C-52.78302998 520.02299854 -52.47711933 520.79152149 -52.16193867 521.58333302 C-37.85955316 557.32198798 -20.17139949 590.70941908 6.61809063 618.84431934 C8.55834687 620.88373689 10.36626115 622.96396337 12.16105938 625.12947559 C21.22712208 635.53705593 32.00881983 644.58879223 43.03166485 652.84627247 C44.32170206 653.81287868 45.60695503 654.78589307 46.88811016 655.76424122 C128.260547 717.77332001 236.31079408 742.55952915 391.84855938 754.81697559 C392.60173443 754.83782215 393.35490948 754.85866871 394.13090801 754.88014698 C408.39418066 755.26793508 422.64245618 755.44749715 436.91105938 755.25447559 C437.58278179 755.24587513 438.2545042 755.23727467 438.94658184 755.22841358 C527.20670468 754.06116599 616.57959582 745.37704297 832.12199688 641.82088184 C834.44916783 639.67949345 836.81164553 637.6110493 839.22355938 635.56697559 C842.48328508 632.73651418 845.29729375 629.68502617 848.08293438 626.39119434 C850.02789358 624.11791939 852.05966593 621.9437191 854.09855938 619.75447559 C897.18748193 571.77240421 917.41433062 507.47073856 922.91105938 444.25447559 C922.9932881 443.33758835 923.07551682 442.4207011 923.16023731 441.4760294 C924.16119618 428.67677784 924.08659278 415.87331438 924.11638165 403.04182911 C924.12597543 400.40910571 924.13594494 397.77638621 924.14638042 395.14366627 C924.16799897 389.50285583 924.1861958 383.86204299 924.20198536 378.22121334 C924.22481873 370.06579098 924.25294186 361.9103934 924.28230464 353.75499224 C924.32981685 340.51939809 924.37312469 327.28379373 924.41374493 314.04817677 C924.45318364 301.20051245 924.49462954 288.35285716 924.53874493 275.50520802 C924.54283133 274.31482757 924.54283133 274.31482757 924.5470003 273.10039902 C924.56068115 269.1187114 924.57440115 265.13702392 924.58814061 261.1553365 C924.7018478 228.18840157 924.80871332 195.22144779 924.91105938 162.25447559 C925.57105938 161.92447559 926.23105938 161.59447559 926.91105938 161.25447559 C927.00429237 149.55283655 927.07509236 137.85128783 927.11830807 126.14935112 C927.13906351 120.71396164 927.16715758 115.27882878 927.21281719 109.84358692 C927.25670891 104.58507724 927.28028669 99.32681228 927.29056835 94.06813335 C927.29788279 92.07535361 927.31216267 90.0825852 927.33397961 88.08991146 C927.59858135 62.8890298 921.76567095 38.04021384 903.59855938 19.44197559 C892.88509038 9.19557881 879.57388127 3.13568886 864.61344492 3.12567443 C862.69304358 3.12076614 862.69304358 3.12076614 860.73384625 3.11575869 C859.31239568 3.11716873 857.8909452 3.11867074 856.46949482 3.12025452 C854.95378603 3.11830142 853.43807775 3.11591251 851.92237025 3.11312655 C847.73715273 3.10671808 843.55195439 3.1065656 839.3667329 3.10740396 C834.82097408 3.10723462 830.27522218 3.10133035 825.7294668 3.09616309 C816.7043446 3.08682874 807.67922732 3.08291364 798.6541009 3.08064413 C787.84735776 3.07768422 777.04062115 3.06898803 766.23388142 3.06022985 C740.11089281 3.03937552 713.98790307 3.02891401 687.86490808 3.02010024 C675.50906524 3.01589505 663.15322289 3.01067288 650.79738046 3.00541571 C608.50996035 2.98752447 566.2225401 2.97252811 523.93511677 2.96509552 C521.27977358 2.96462076 518.62443039 2.96414487 515.96908721 2.96366786 C514.65226228 2.96343148 513.33543735 2.96319511 511.97870864 2.96295157 C505.97536474 2.96187071 499.97202083 2.96078143 493.96867692 2.95967739 C492.63160676 2.95943215 491.2945366 2.9591883 489.95746643 2.95894582 C447.02478141 2.95115776 404.09212373 2.9287785 361.15945066 2.89626939 C315.11306566 2.86141429 269.06669783 2.8407933 223.02029932 2.83745128 C218.0392487 2.83703373 213.05819809 2.83655417 208.07714748 2.8360281 C206.8506537 2.83590491 205.62415992 2.83578172 204.36049967 2.83565479 C184.61685617 2.83332207 164.87324473 2.81765806 145.12961266 2.79718625 C125.28547822 2.77693662 105.44138231 2.77144688 85.59723945 2.78095689 C73.80708439 2.78617522 62.01705758 2.78027857 50.22692096 2.75842222 C42.34896981 2.74492159 34.471107 2.74598466 26.59315499 2.75882417 C22.10594686 2.76572564 17.61898404 2.76637384 13.13179775 2.74926408 C9.04262694 2.73379934 4.95389737 2.73704522 0.86473922 2.75467436 C-0.59864211 2.75780189 -2.06205771 2.75435295 -3.52539974 2.74318262 C-16.23222553 2.65257167 -28.00579266 4.73159297 -39.40144062 10.56697559 C-41.27088686 11.51664509 -43.16102878 12.42994098 -45.08894062 13.25447559 C-45.74894062 12.92447559 -46.40894062 12.59447559 -47.08894062 12.25447559 C-32.03030293 2.45492829 -17.76596802 -0.05869068 0 0 Z " fill="#FFFFFF" transform="translate(501.08894062042236,707.7455244064331)"/>
<path d="M0 0 C233.64 0 467.28 0 708 0 C708.33 19.47 708.66 38.94 709 59 C709.33 59 709.66 59 710 59 C710.07034411 84.54913044 710.12311189 110.09824619 710.15543652 135.64745426 C710.17084996 147.51264258 710.19183279 159.37777044 710.22631836 171.24291992 C710.25639097 181.59474925 710.27561504 191.94653474 710.28226548 202.29840654 C710.28614774 207.77039964 710.29515384 213.24226744 710.31719017 218.71422005 C710.52239042 271.78068459 705.07089075 321.66543466 667 362 C666.37738281 362.67546875 665.75476562 363.3509375 665.11328125 364.046875 C644.1660949 386.0040934 614.12347775 400.00405403 586 410 C585.04206543 410.3412793 584.08413086 410.68255859 583.09716797 411.03417969 C535.91566589 427.55996138 485.51649006 434.02257604 435.875 437.6875 C435.05383698 437.74843842 434.23267395 437.80937683 433.3866272 437.87216187 C427.59369049 438.29534989 421.7987781 438.66655927 416 439 C415.14873535 439.0494577 414.2974707 439.09891541 413.42041016 439.14987183 C395.09464483 440.16893526 376.76249192 440.18753301 358.41455078 440.18530273 C354.99294696 440.18522196 351.57147844 440.19210422 348.14990234 440.20581055 C317.94593543 440.32468031 287.79158173 439.56516024 257.75 436.1875 C256.98246399 436.10385193 256.21492798 436.02020386 255.4241333 435.934021 C200.27779596 429.90473295 145.33824212 418.16213699 96 392 C95.33661621 391.64969727 94.67323242 391.29939453 93.98974609 390.93847656 C74.98259868 380.81406638 58.6623468 367.71110257 43 353 C42.31421875 352.37996094 41.6284375 351.75992187 40.921875 351.12109375 C19.25000148 330.76956546 5.76725484 301.83627422 0 273 C0 182.91 0 92.82 0 0 Z M1 2 C-7.61698125 140.83081343 -7.61698125 140.83081343 5.1875 277.125 C5.40180664 278.03403076 5.61611328 278.94306152 5.83691406 279.87963867 C16.57844615 323.38132433 47.27650476 357.5485549 84.8125 380.625 C87.8553936 382.45171197 90.92025968 384.23620842 94 386 C94.72993164 386.41991211 95.45986328 386.83982422 96.21191406 387.27246094 C150.27812514 417.98590501 214.4392274 428.53476669 275.625 433.6875 C276.3444278 433.74843842 277.06385559 433.80937683 277.80508423 433.87216187 C282.86714371 434.29458756 287.93151519 434.66379072 293 435 C293.72363739 435.0494577 294.44727478 435.09891541 295.19284058 435.14987183 C314.03722653 436.38746352 332.93700189 436.20045145 351.8125 436.1875 C352.68183292 436.18723312 353.55116585 436.18696625 354.44684219 436.18669128 C392.09759599 436.17408177 392.09759599 436.17408177 429.68548584 434.18359375 C432.16574749 433.98685244 434.64656428 433.79818706 437.12744141 433.609375 C508.86964355 428.0562359 597.9887774 417.82758363 654 368 C654.83660156 367.28328125 655.67320312 366.5665625 656.53515625 365.828125 C689.6782381 336.93678317 700.46212114 299.45707125 706 257 C706 172.85 706 88.7 706 2 C473.35 2 240.7 2 1 2 Z " fill="#FFFFFF" transform="translate(575,869)"/>
<path d="M0 0 C0.33 0 0.66 0 1 0 C0.49161591 12.42363626 -1.05660979 24.54008397 -3 36.8125 C-3.15205902 37.78165344 -3.30411804 38.75080688 -3.46078491 39.74932861 C-17.10295497 126.15296265 -43.29902794 210.52910419 -91 310 C-92.34258045 305.97225864 -91.25687275 304.49973329 -89.66796875 300.58984375 C-89.12022962 299.21942115 -88.57254374 297.84897728 -88.02490234 296.47851562 C-87.57784943 295.37503784 -87.57784943 295.37503784 -87.12176514 294.24926758 C-85.48801309 290.20667319 -83.89315354 286.14888378 -82.30078125 282.08984375 C-81.956521 281.21242523 -81.61226074 280.33500671 -81.25756836 279.43099976 C-69.65629452 249.69859033 -59.22333704 219.46821685 -49.34716797 189.12255859 C-48.24199942 185.73091711 -47.11772446 182.34600328 -45.98657227 178.96295166 C-27.68035371 124.16933847 -12.30618467 67.86141723 -2 11 C-1.69739258 9.34411865 -1.69739258 9.34411865 -1.38867188 7.65478516 C-0.92327819 5.1036332 -0.46023923 2.55208589 0 0 Z " fill="#1C6B8F" transform="translate(1849,1036)"/>
<path d="M0 0 C0.33 0.66 0.66 1.32 1 2 C-0.09790039 4.36547852 -0.09790039 4.36547852 -1.84765625 7.37890625 C-2.50475586 8.51150879 -3.16185547 9.64411133 -3.83886719 10.81103516 C-4.57911254 12.06209527 -5.32035341 13.31256679 -6.0625 14.5625 C-6.43636841 15.19726257 -6.81023682 15.83202515 -7.19543457 16.48602295 C-16.44372071 32.15757017 -26.58711338 47.22569839 -36.82104492 62.2644043 C-38.48759378 64.71780993 -40.14206131 67.17929398 -41.796875 69.640625 C-52.54679853 85.57167485 -63.96077701 101.02024539 -76 116 C-76.5141748 116.6403418 -77.02834961 117.28068359 -77.55810547 117.94042969 C-84.46222422 126.52235922 -91.46605067 135.01262475 -98.62304688 143.38476562 C-100.04121346 145.04834543 -101.45075317 146.71895876 -102.859375 148.390625 C-109.24967091 155.94666064 -115.87044915 163.24284858 -122.66015625 170.44140625 C-125.48748896 173.44062296 -128.24819561 176.49368774 -131 179.5625 C-139.95946841 189.38945098 -149.5582876 198.63949857 -159 208 C-159 205 -159 205 -157.09155273 202.7668457 C-156.21442627 201.91179443 -155.3372998 201.05674316 -154.43359375 200.17578125 C-153.96188248 199.71068649 -153.4901712 199.24559174 -153.00416565 198.7664032 C-151.48886019 197.27452073 -149.96383672 195.79308755 -148.4375 194.3125 C-146.45316786 192.375009 -144.47314368 190.43320164 -142.49609375 188.48828125 C-141.77413818 187.77887138 -141.77413818 187.77887138 -141.03759766 187.05513 C-137.69325272 183.74600574 -134.54316849 180.32375247 -131.49145508 176.74536133 C-129.27737479 174.15435462 -126.94793843 171.68134531 -124.625 169.1875 C-120.27675338 164.48624815 -116.18728781 159.62750666 -112.171875 154.63671875 C-110.06243651 152.07579972 -107.87112352 149.62876545 -105.625 147.1875 C-101.66419325 142.83676927 -98.03040717 138.30192104 -94.43139648 133.65380859 C-91.34471127 129.67833167 -88.17760302 125.7844006 -84.94995117 121.92260742 C-77.50240003 113.00597292 -70.55922135 103.79340737 -63.74121094 94.38964844 C-62.03156201 92.0433159 -60.30473523 89.71087678 -58.5703125 87.3828125 C-37.5913955 59.20627019 -18.59653368 29.78155083 0 0 Z " fill="#1C6B8F" transform="translate(1734,1387)"/>
<path d="M0 0 C0.99 0.33 1.98 0.66 3 1 C3.84468498 9.93293228 4.28328079 18.84544372 4.5625 27.8125 C4.60568359 29.06353516 4.64886719 30.31457031 4.69335938 31.60351562 C4.97910195 40.40710836 5.04930624 49.19296724 5 58 C4.67 58 4.34 58 4 58 C3.42709177 50.70451568 2.85780461 43.40875523 2.29101562 36.11279297 C2.09783652 33.63160831 1.90383327 31.15048768 1.70898438 28.66943359 C1.42881248 25.10010079 1.15162004 21.53054711 0.875 17.9609375 C0.78750488 16.85446869 0.70000977 15.74799988 0.60986328 14.60800171 C0.23428582 9.72762012 -0.11895547 4.89947862 0 0 Z " fill="#1C6B8F" transform="translate(1852,868)"/>
</svg>
