<?xml version="1.0" encoding="UTF-8" standalone="no" ?>
<!DOCTYPE svg PUBLIC "-//W3C//DTD SVG 1.1//EN" "http://www.w3.org/Graphics/SVG/1.1/DTD/svg11.dtd">
<svg xmlns="http://www.w3.org/2000/svg" xmlns:xlink="http://www.w3.org/1999/xlink" version="1.1" width="480" height="480" viewBox="0 0 480 480" xml:space="preserve">
<desc>Created with Fabric.js 3.6.6</desc>
<defs>
</defs>
<g transform="matrix(0.4 0 0 0.4 244.45 334.73)"  >
<path style="stroke: none; stroke-width: 1; stroke-dasharray: none; stroke-linecap: butt; stroke-dashoffset: 0; stroke-linejoin: miter; stroke-miterlimit: 4; fill: rgb(206,206,206); fill-rule: nonzero; opacity: 1;"  transform=" translate(488.7, -297.05)" d="M 0 0 C 0.06899402 33.43546912 0.12169378 66.87092022 0.15319599 100.30644497 C 0.15694713 104.27330718 0.1608302 108.24016925 0.16479492 112.20703125 C 0.16558185 112.99660684 0.16636878 113.78618243 0.16717956 114.59968455 C 0.1801564 127.3060947 0.20376652 140.01246323 0.23145839 152.71884887 C 0.25972956 165.80229402 0.27622154 178.88571771 0.28226548 191.96919215 C 0.28597642 199.29878966 0.29481898 206.62830034 0.31719017 213.95786667 C 0.42769657 251.28084798 0.50905545 288.25769608 -7 325 C -7.19932129 325.97598145 -7.39864258 326.95196289 -7.60400391 327.95751953 C -12.82745038 352.78799065 -20.7173319 377.25010014 -32 400 C -32.37560059 400.77279297 -32.75120117 401.54558594 -33.13818359 402.34179688 C -44.05284128 424.66031043 -58.38102183 445.08441384 -75.37109375 463.18359375 C -77.8614979 465.85161959 -80.27759344 468.571903 -82.6875 471.3125 C -85.9098752 474.9005348 -89.24570267 478.13887406 -92.93359375 481.2421875 C -95.18746984 483.1594734 -97.33492847 485.17062201 -99.5 487.1875 C -110.71788782 497.28875273 -123.28566806 505.90163436 -136 514 C -136.57476074 514.36657715 -137.14952148 514.7331543 -137.74169922 515.11083984 C -149.41546237 522.48426519 -161.68527272 528.77688352 -174 535 C -174.73943848 535.37511719 -175.47887695 535.75023437 -176.24072266 536.13671875 C -250.0657645 573.23580115 -336.59930858 585.93969464 -488 594 C -489.22686523 594.01659668 -490.45373047 594.03319336 -491.71777344 594.05029297 C -499.48054837 594.13897911 -507.23761901 594.111853 -515 594 C -516.27037109 593.98211426 -517.54074219 593.96422852 -518.84960938 593.94580078 C -605.41472873 592.59128278 -693.31314766 580.93919173 -869 501 C -869.64727051 500.53384277 -870.29454102 500.06768555 -870.96142578 499.58740234 C -895.91005789 481.48577709 -918.15826826 460.83682865 -936.50537109 436.01660156 C -937.83988948 434.21602628 -939.19217133 432.43083894 -940.55078125 430.6484375 C -955.07620229 411.29693279 -966.16017403 389.40417137 -975.125 367 C -975.58700806 365.85942139 -975.58700806 365.85942139 -976.05834961 364.69580078 C -978.12022779 359.36068336 -978.12022779 359.36068336 -977 356 C -974.60864258 354.67236328 -974.60864258 354.67236328 -971.39453125 353.3203125 C -969.60112305 352.55557617 -969.60112305 352.55557617 -967.77148438 351.77539062 C -966.45185858 351.22517489 -965.13219608 350.67504715 -963.8125 350.125 C -962.44938381 349.54736946 -961.08676026 348.96857511 -959.72460938 348.38867188 C -956.89072974 347.18328883 -954.05478242 345.98297373 -951.21728516 344.78613281 C -945.40971526 342.33215522 -939.62855495 339.81785884 -933.84716797 337.30297852 C -930.72627039 335.94629967 -927.60322157 334.59458907 -924.48046875 333.2421875 C -919.54464085 331.1037056 -914.60990713 328.96271853 -909.67578125 326.8203125 C -890.47641925 318.48618892 -871.24316246 310.23242986 -852 302 C -851.67 292.1 -851.34 282.2 -851 272 C -850.67 272 -850.34 272 -850 272 C -849.56300781 273.77890625 -849.56300781 273.77890625 -849.1171875 275.59375 C -839.66999891 313.25722046 -819.9368669 344.10896404 -789 368 C -788.45923828 368.42249023 -787.91847656 368.84498047 -787.36132812 369.28027344 C -728.32356595 415.1501352 -649.27427457 429.89709551 -576.5 435.75 C -575.76792328 435.80907532 -575.03584656 435.86815063 -574.28158569 435.92901611 C -569.19043421 436.3323027 -564.09685466 436.67766238 -559 437 C -558.27800415 437.0483902 -557.5560083 437.0967804 -556.81213379 437.14663696 C -537.81871409 438.38722627 -518.77429814 438.20038693 -499.75 438.1875 C -498.86964584 438.18723312 -497.98929169 438.18696625 -497.08226013 438.18669128 C -470.67880658 438.1766358 -444.33667106 438.07806749 -418 436 C -417.15159546 435.93447937 -416.30319092 435.86895874 -415.42907715 435.80145264 C -353.7933016 431.01348565 -290.10639588 422.48215577 -234 395 C -232.88939209 394.45907715 -232.88939209 394.45907715 -231.75634766 393.90722656 C -195.22260816 375.90321857 -166.40311301 347.79859016 -152.59106445 308.98632812 C -144.61801671 285.35295043 -141.70856617 261.63742009 -141.68115234 236.80249023 C -141.67182914 234.83941242 -141.66165702 232.87633848 -141.65071106 230.91326904 C -141.62366634 225.63965871 -141.60833837 220.36607469 -141.59528303 215.09241366 C -141.57953942 209.56044455 -141.55278567 204.02852832 -141.5272522 198.49659729 C -141.48066165 188.04593157 -141.44382273 177.59525567 -141.41057932 167.14453989 C -141.37221768 155.23623774 -141.3228448 143.32798897 -141.27259517 131.41973197 C -141.16956904 106.94652765 -141.08021426 82.47328898 -141 58 C -139.26431335 57.2068009 -137.52815754 56.41462836 -135.79180908 55.62287903 C -134.82503864 55.18162595 -133.8582682 54.74037287 -132.86220169 54.28574848 C -128.83527159 52.47678468 -124.76231582 50.79582159 -120.671875 49.13671875 C -119.38989479 48.61352303 -119.38989479 48.61352303 -118.08201599 48.07975769 C -115.30546962 46.94705058 -112.52772754 45.81730703 -109.75 44.6875 C -107.78545882 43.8864863 -105.82102365 43.08521256 -103.85668945 42.28369141 C -100.84469902 41.05472457 -97.83264656 39.82591247 -94.82026672 38.59790039 C -85.27009945 34.70464573 -75.72789597 30.79212533 -66.1875 26.875 C -63.81678162 25.90185923 -61.446037 24.92878239 -59.07528687 23.95571899 C -57.49310061 23.30631525 -55.91092692 22.65688092 -54.32876587 22.00741577 C -49.18305274 19.89532283 -44.0366126 17.78500984 -38.88972473 15.67578125 C -35.29271749 14.20170186 -31.69587179 12.7272285 -28.09902954 11.25274658 C -26.38652301 10.55085316 -24.67393942 9.84914771 -22.96127319 9.14764404 C -20.58855792 8.17575777 -18.21612562 7.20318375 -15.84375 6.23046875 C -15.15074295 5.94681961 -14.4577359 5.66317047 -13.74372864 5.3709259 C -10.50623675 4.04277317 -7.28170515 2.69281926 -4.07226562 1.2980957 C -1 0 -1 0 0 0 Z" stroke-linecap="round" />
</g>
<g transform="matrix(0.4 0 0 0.4 240.69 302)"  >
<path style="stroke: none; stroke-width: 1; stroke-dasharray: none; stroke-linecap: butt; stroke-dashoffset: 0; stroke-linejoin: miter; stroke-miterlimit: 4; fill: rgb(204,204,204); fill-rule: nonzero; opacity: 1;"  transform=" translate(-426.42, -378.28)" d="M 0 0 C 1.51743638 -0.00313769 3.03487051 -0.00758755 4.55229971 -0.0132131 C 8.69574585 -0.02481534 12.83898019 -0.01794794 16.98242259 -0.00787924 C 21.50020529 -0.00023264 26.01795685 -0.01006327 30.53573507 -0.01760924 C 38.44505895 -0.02842173 46.35432135 -0.02812951 54.26364803 -0.02046776 C 66.02517276 -0.00910542 77.78664577 -0.01492925 89.54817017 -0.02409268 C 110.55574349 -0.0398808 131.56328944 -0.03852438 152.57086536 -0.02985594 C 170.95438565 -0.02230756 189.33789591 -0.02033998 207.72141743 -0.02392387 C 209.55095996 -0.02426761 209.55095996 -0.02426761 211.41746294 -0.02461828 C 216.36866338 -0.02555231 221.31986382 -0.02650751 226.27106424 -0.02749758 C 272.71050707 -0.03667318 319.14993246 -0.02835629 365.58937259 -0.01220688 C 406.844807 0.00203067 448.10020149 0.00075513 489.35563564 -0.01358986 C 535.71196733 -0.02965464 582.06828362 -0.03602333 628.42461771 -0.02675307 C 633.36645662 -0.02579092 638.30829555 -0.0248524 643.25013447 -0.02392387 C 644.46693176 -0.02368664 645.68372906 -0.02344941 646.937399 -0.02320499 C 665.30971098 -0.01979303 683.68201181 -0.02378254 702.05432224 -0.03136253 C 722.94432756 -0.03993833 743.83430122 -0.03779997 764.7243026 -0.0215203 C 776.41471337 -0.01271037 788.10505557 -0.01213799 799.79546457 -0.02345882 C 807.60530695 -0.03018754 815.41509439 -0.02599642 823.22492863 -0.01294452 C 827.67384246 -0.00581197 832.12262012 -0.00336022 836.57152963 -0.01416247 C 840.62463721 -0.0239032 844.6774887 -0.01966506 848.73057787 -0.00462049 C 850.18202112 -0.00161718 851.63348593 -0.00354901 853.08491192 -0.0112383 C 873.99248894 -0.11407696 893.28969226 5.4685205 908.66886806 20.12752342 C 923.66140834 35.83286276 928.90685481 54.52429523 928.79981899 75.79663658 C 928.80328339 77.31392909 928.80805317 78.83121908 928.81400073 80.34850389 C 928.82643603 84.48354507 928.82037438 88.6183765 928.81104207 92.75341809 C 928.80421981 97.22765157 928.81474931 101.70185042 928.82298183 106.17607689 C 928.83629447 114.93346822 928.83345044 123.69078222 928.82474391 132.44817653 C 928.81794896 139.58097155 928.81705849 146.71374502 928.82031536 153.84654236 C 928.82077506 154.86462343 928.82123476 155.8827045 928.82170839 156.93163652 C 928.82266767 159.00058872 928.82364032 161.06954091 928.82462616 163.1384931 C 928.8331752 182.52958994 928.82335829 201.9206442 928.80722506 221.31173406 C 928.79386477 237.88064169 928.7961154 254.44948612 928.80998135 271.01839256 C 928.82611935 290.31093979 928.83230681 309.60344954 928.82314456 328.89600259 C 928.82218906 330.96345953 928.82124595 333.03091647 928.82031536 335.09837341 C 928.81985253 336.11523927 928.81938971 337.13210513 928.81891286 338.1797851 C 928.81634429 345.27732019 928.82064826 352.37483116 928.82775402 359.47236252 C 928.83626297 368.16198526 928.83369726 376.85152697 928.81791179 385.5411407 C 928.81014646 389.95854455 928.80672966 394.37581452 928.81685925 398.79321671 C 928.85265607 415.86589449 928.55996639 432.79965709 927.03132534 449.81253624 C 926.96959866 450.5001281 926.90787199 451.18771995 926.8442748 451.89614793 C 920.88546031 516.61156549 897.60769385 578.69301003 853.53996181 627.03767967 C 851.61100472 629.16557157 849.72850454 631.32473201 847.85636806 633.50252342 C 841.88301868 640.34297191 835.36791584 646.54119601 828.41886806 652.37752342 C 827.88825771 652.8272451 827.35764736 653.27696678 826.81095791 653.74031639 C 761.08376349 709.22851086 674.74962283 736.30648033 332.93449306 756.59499168 C 244.11959243 748.917209 153.65072942 727.06805093 24.63761806 644.41267967 C 22.64187707 642.58207922 20.60656195 640.81915859 18.54386806 639.06502342 C 9.24310229 630.92920205 1.08624089 622.05301771 -6.58113194 612.37752342 C -8.01846277 610.66904776 -9.45596638 608.96071744 -10.89363194 607.25252342 C -61.02003551 545.63881903 -76.15326235 469.16217946 -75.97330594 391.60924172 C -75.96636487 387.15825606 -75.97706835 382.70730172 -75.9852457 378.25632286 C -75.99842232 369.59474829 -75.99578032 360.93325269 -75.98700778 352.27167532 C -75.98017596 345.22979039 -75.97933793 338.18792727 -75.98257923 331.14603996 C -75.98303893 330.13613116 -75.98349863 329.12622237 -75.98397226 328.08571027 C -75.98493159 326.03306366 -75.98590424 323.98041706 -75.98689003 321.92777047 C -75.99539441 302.79375495 -75.98568368 283.65978294 -75.96948893 264.52577457 C -75.9560492 248.13893358 -75.95845346 231.75215627 -75.97224522 215.36531639 C -75.98831842 196.25922213 -75.99461373 177.15316557 -75.98540843 158.0470655 C -75.9844529 156.00894086 -75.98350979 153.97081622 -75.98257923 151.93269157 C -75.9821164 150.93026266 -75.98165358 149.92783374 -75.98117673 148.89502819 C -75.97859512 141.85848584 -75.98293901 134.82196761 -75.99001789 127.785429 C -75.99845068 119.21651562 -75.9961137 110.64768463 -75.98017566 102.07878062 C -75.97232319 97.71433953 -75.96915 93.3500356 -75.97912312 88.9855957 C -75.98813103 84.98304264 -75.98303824 80.98075261 -75.96719046 76.97822306 C -75.96386878 75.53889471 -75.96547702 74.09954365 -75.97281782 72.66023019 C -76.03063994 60.37074632 -74.82924107 48.18520096 -68.95613194 37.19002342 C -68.60840733 36.52349754 -68.26068272 35.85697166 -67.902421 35.17024803 C -59.61575513 19.82587098 -46.91941506 9.38394532 -30.58113194 3.37752342 C -20.3686845 0.6655282 -10.55487513 -0.056016 0 0 Z" stroke-linecap="round" />
</g>
<g transform="matrix(0.4 0 0 0.4 239.09 302.91)"  >
<path style="stroke: none; stroke-width: 1; stroke-dasharray: none; stroke-linecap: butt; stroke-dashoffset: 0; stroke-linejoin: miter; stroke-miterlimit: 4; fill: rgb(33,33,33); fill-rule: nonzero; opacity: 1;"  transform=" translate(-348.02, -217.14)" d="M 0 0 C 232.65 0 465.3 0 705 0 C 705 268.68246445 705 268.68246445 699.1875 290.5 C 698.92888184 291.49644531 698.67026367 292.49289062 698.40380859 293.51953125 C 696.22575953 301.65654313 693.53533746 309.34010217 690 317 C 689.70899414 317.64340332 689.41798828 318.28680664 689.11816406 318.94970703 C 669.88141501 361.11788233 630.23692502 386.56928872 588.09057617 402.49682617 C 538.56288097 420.57625421 485.84687259 427.8253793 433.50982666 431.80859375 C 431.1629008 431.98757674 428.81657801 432.17319162 426.47021484 432.359375 C 402.4597758 434.21475929 378.38868966 434.20445163 354.32117081 434.24497986 C 351.80259349 434.24989731 349.28404013 434.2578044 346.76547241 434.26623535 C 317.14734888 434.3512414 287.52189533 433.53174056 258.0625 430.25 C 257.30202362 430.16763092 256.54154724 430.08526184 255.75802612 430.00039673 C 176.06887879 421.30538938 86.15892541 400.14077844 33 335 C -34.89930368 246.88488315 0 78.39532875 0 0 Z" stroke-linecap="round" />
</g>
<g transform="matrix(0.4 0 0 0.4 239.92 69.59)"  >
<path style="stroke: none; stroke-width: 1; stroke-dasharray: none; stroke-linecap: butt; stroke-dashoffset: 0; stroke-linejoin: miter; stroke-miterlimit: 4; fill: rgb(204,204,204); fill-rule: nonzero; opacity: 1;"  transform=" translate(-502, -118.16)" d="M 0 0 C 39.0739136 5.74616376 39.0739136 5.74616376 56.53491211 8.53564453 C 58.56131672 8.85779474 60.58774985 9.17976557 62.61420822 9.50157738 C 68.03651041 10.36314751 73.45843193 11.22709058 78.88028312 12.09149361 C 84.72478713 13.02281064 90.56966519 13.95177464 96.414505 14.88098145 C 106.40993124 16.47029678 116.40515827 18.0608596 126.40026855 19.65216064 C 141.39565294 22.03940214 156.39168322 24.4225697 171.38787988 26.80470273 C 174.68502998 27.32845833 177.98217384 27.85225322 181.27931786 28.37604713 C 181.93303255 28.47989799 182.58674725 28.58374885 183.26027148 28.6907467 C 184.58149901 28.9006406 185.90272649 29.11053481 187.22395392 29.32042931 C 188.54541635 29.53036062 189.86687898 29.74029077 191.18834178 29.95021977 C 206.36182923 32.36069843 221.53521179 34.77183664 236.70849609 37.18359375 C 237.99338086 37.38782227 239.27826563 37.5920508 240.60208631 37.80246806 C 259.55136081 40.81454428 278.49998974 43.83065763 297.44823039 46.84923005 C 314.53866198 49.57175575 331.62992916 52.28898 348.72211742 55.00045586 C 358.70598586 56.58448753 368.68909098 58.17316049 378.67117542 59.76839662 C 385.41868711 60.84629176 392.16709703 61.91843571 398.91622978 62.98613334 C 402.73059103 63.58972783 406.54454582 64.19559279 410.35738564 64.80873108 C 460.53627942 72.8724372 510.89779854 76.25566266 561.46289062 69.46557617 C 562.71291115 69.29779506 563.96293167 69.13001394 565.2508316 68.95714855 C 587.00739336 65.98475668 608.67890069 62.38997339 630.36248899 58.93469501 C 636.46543933 57.96257322 642.56907283 56.99475433 648.67263655 56.02649269 C 660.95862965 54.07735236 673.24410352 52.12495928 685.52926636 50.17059326 C 702.79250334 47.42433437 720.05652747 44.6830467 737.32072292 41.94282043 C 744.08471799 40.86919669 750.84868798 39.79541505 757.61265564 38.72161865 C 758.72559489 38.54493859 758.72559489 38.54493859 759.86101777 38.36468923 C 771.06420266 36.58614975 782.26726225 34.80682253 793.4702301 33.0269165 C 794.20155164 32.91072562 794.93287318 32.79453474 795.68635597 32.67482293 C 798.6181506 32.20902244 801.54994439 31.7432167 804.48173749 31.27740657 C 844.39787085 24.93543823 884.31529436 18.60163396 924.2349987 12.28217793 C 933.45756999 10.82218223 942.67996772 9.36110168 951.90209001 7.89827245 C 958.02859504 6.92653451 964.15526455 5.95583901 970.28208166 4.98607069 C 973.719237 4.44199707 977.15631545 3.89745 980.59318352 3.35156441 C 984.22002195 2.77576837 987.84714949 2.20183155 991.47436523 1.62841797 C 992.52889137 1.46053426 993.58341751 1.29265055 994.66989899 1.11967945 C 995.61849037 0.97012145 996.56708176 0.82056345 997.54441833 0.66647339 C 998.36353415 0.53666517 999.18264997 0.40685696 1000.02658749 0.27311516 C 1002 0 1002 0 1004 0 C 1004 53.79 1004 107.58 1004 163 C 962.60234412 169.89960931 962.60234412 169.89960931 943.09716797 172.98803711 C 940.84330506 173.34599302 938.58946117 173.70406875 936.33563423 174.06225109 C 930.31055258 175.01941065 924.28520201 175.97486675 918.25979233 176.92995882 C 912.46215685 177.84922191 906.66473186 178.76981004 900.8672938 179.69031721 C 885.67198547 182.10291525 870.47622953 184.51268768 855.28038628 186.92191392 C 848.15291571 188.05195132 841.02549353 189.1822938 833.89807265 190.31264452 C 810.43086771 194.03432229 786.96354762 197.75527318 763.49581909 201.47364807 C 762.80481409 201.58313545 762.11380909 201.69262284 761.40186454 201.80542802 C 755.90751918 202.67598376 750.41317134 203.54652393 744.91881934 204.41703777 C 725.72951715 207.45735207 706.54066967 210.50051494 687.35236907 213.54714429 C 672.44572498 215.91389413 657.53853668 218.27717976 642.63052559 220.63530445 C 635.07762545 221.83008007 627.52497847 223.02639419 619.9730835 224.22750854 C 613.1004715 225.32057859 606.22700834 226.40814142 599.35290527 227.49179459 C 596.9409247 227.87288316 594.52922087 228.25572937 592.11785889 228.64071274 C 563.8405585 233.15294299 535.95617331 236.19316903 507.31298828 236.24023438 C 503.82689112 236.24978925 500.34142446 236.28082299 496.85546875 236.3125 C 484.48484606 236.37167807 472.19194872 235.98477661 459.86621094 234.90795898 C 459.15134364 234.84575649 458.43647635 234.78355399 457.6999464 234.71946657 C 438.1473588 232.97384122 418.81382363 229.78799503 399.44519997 226.65470862 C 393.9622487 225.7705993 388.47704355 224.900681 382.99206543 224.0292511 C 373.4136167 222.5059695 363.83638134 220.97525079 354.25976562 219.44049072 C 339.19258371 217.02678609 324.12144367 214.63834628 309.04940534 212.25520715 C 305.61457954 211.71208774 302.17978054 211.16879891 298.74497986 210.62552071 C 297.71688518 210.46290841 297.71688518 210.46290841 296.6680209 210.29701103 C 295.27847404 210.07722708 293.88892746 209.85744128 292.49938118 209.63765363 C 291.10355451 209.4168763 289.70772649 209.1961074 288.31189716 208.97534688 C 272.67817036 206.50272055 257.04544298 204.02380396 241.41290164 201.54369536 C 239.25281458 201.20099868 237.09272488 200.85831869 234.93263435 200.51564384 C 227.69924011 199.36814061 220.46585746 198.22056437 213.23248291 197.07293701 C 191.4399084 193.6154009 169.64719011 190.15877109 147.85433865 186.70298111 C 140.87746568 185.59662395 133.90060906 184.49016405 126.92379761 183.38341904 C 101.42303903 179.33825975 75.92226372 175.29342196 50.4140625 171.29541016 C 49.54663957 171.15940938 48.67921663 171.02340861 47.78550816 170.8832866 C 40.06870748 169.67347974 32.35173191 168.46483492 24.63366413 167.26313543 C 21.46067399 166.76878135 18.28799336 166.27244651 15.11523438 165.77661133 C 14.01968231 165.60694414 12.92413025 165.43727695 11.79537964 165.26246834 C 10.80986115 165.10820318 9.82434265 164.95393803 8.80895996 164.79499817 C 7.96791466 164.6642027 7.12686935 164.53340723 6.26033783 164.39864826 C 4.15461179 164.02726837 2.07438273 163.51859568 0 163 C 0 109.21 0 55.42 0 0 Z" stroke-linecap="round" />
</g>
</svg>