<?xml version="1.0" standalone="no"?>
<!DOCTYPE svg PUBLIC "-//W3C//DTD SVG 20010904//EN"
 "http://www.w3.org/TR/2001/REC-SVG-20010904/DTD/svg10.dtd">
<svg version="1.0" xmlns="http://www.w3.org/2000/svg"
 width="1857.000000pt" height="1856.000000pt" viewBox="0 0 1857.000000 1856.000000"
 preserveAspectRatio="xMidYMid meet">

<g transform="translate(0.000000,1856.000000) scale(0.100000,-0.100000)"
fill="#000000" stroke="none">
<path d="M8715 18549 c-3282 -202 -6192 -2105 -7701 -5034 -586 -1138 -920
-2367 -1004 -3690 -13 -206 -13 -872 0 -1085 102 -1674 617 -3218 1535 -4600
517 -778 1171 -1497 1902 -2087 1091 -882 2370 -1506 3734 -1821 494 -115
1036 -192 1549 -222 127 -8 453 -10 935 -7 806 4 833 6 1250 73 1085 175 2163
585 3145 1197 877 546 1815 1383 2475 2207 910 1136 1546 2488 1840 3910 63
308 97 529 151 990 31 271 37 355 41 600 6 315 -9 788 -32 1072 -131 1590
-666 3107 -1563 4433 -493 729 -1119 1415 -1807 1980 -316 260 -766 577 -1112
784 -1297 774 -2710 1208 -4233 1301 -190 11 -913 11 -1105 -1z m-2230 -4224
c1199 -189 2248 -351 2331 -359 319 -32 683 -30 989 5 83 9 4422 693 4473 704
l22 5 0 -815 c0 -448 -3 -815 -6 -815 -3 0 -971 -153 -2152 -340 -2304 -365
-2290 -363 -2522 -381 -193 -14 -662 -6 -851 15 -75 8 -1117 171 -2316 361
-1199 190 -2183 345 -2187 345 -3 0 -6 367 -6 815 l0 815 23 -5 c12 -2 1003
-160 2202 -350z m7320 -2873 c125 -42 204 -90 291 -177 66 -66 89 -98 128
-175 83 -168 77 -4 73 -2148 -4 -2065 -1 -1965 -57 -2282 -282 -1592 -1554
-2505 -3806 -2730 -745 -74 -1575 -74 -2259 1 -1011 110 -1906 403 -2575 843
-669 440 -1121 1120 -1274 1914 -65 338 -66 378 -66 2374 0 1988 -3 1882 65
2026 97 204 287 344 510 375 17 2 2026 4 4465 3 l4435 -1 70 -23z"/>
<path d="M5760 8653 c0 -725 4 -1243 10 -1312 34 -385 173 -691 435 -956 583
-591 1577 -875 3070 -875 1435 0 2444 224 2991 664 237 191 399 449 479 766
62 246 59 162 62 1598 l4 1312 -3526 0 -3525 0 0 -1197z"/>
</g>
</svg>
